<mxfile host="app.diagrams.net" modified="2021-09-04T14:03:23.354Z" agent="5.0 (Macintosh; Intel Mac OS X 10_15_6) AppleWebKit/537.36 (KHTML, like Gecko) Chrome/92.0.4515.159 Safari/537.36" etag="-DgzYH4e8ANnzY4coKvT" version="15.0.6" type="github">
  <diagram id="GhMib4twgw7_4yaa3OUu" name="Page-1">
    <mxGraphModel dx="3165" dy="1919" grid="1" gridSize="10" guides="1" tooltips="1" connect="1" arrows="1" fold="1" page="1" pageScale="1" pageWidth="1920" pageHeight="1200" math="0" shadow="0">
      <root>
        <mxCell id="0" />
        <mxCell id="1" parent="0" />
        <object label="&lt;font color=&quot;#ffffff&quot;&gt;&amp;lt;%type%&amp;gt;&lt;br&gt;商家入住合同&lt;br&gt;%createAt%&lt;br&gt;&lt;/font&gt;" placeholders="1" type="Contract" name="Name of the Contract" createAt="create_at" id="9WLNM4YeZtYHizWp_HL_-1">
          <mxCell style="rounded=1;whiteSpace=wrap;html=1;fillColor=#FF66B3;noLabel=0;comic=0;recursiveResize=1;" parent="1" vertex="1">
            <mxGeometry x="-899" y="-830" width="170" height="100" as="geometry" />
          </mxCell>
        </object>
        <object label="&lt;font color=&quot;#ffffff&quot;&gt;&amp;lt;%type%&amp;gt;&lt;br&gt;商家账号开通申请&lt;br&gt;%createAt%&lt;br&gt;%expireAt%&lt;br&gt;&lt;/font&gt;" placeholders="1" type="Fulfilment" name="Fulfilment Request" createAt="create_at" expireAt="expire_at" id="9WLNM4YeZtYHizWp_HL_-107">
          <mxCell style="rounded=1;whiteSpace=wrap;html=1;fillColor=#FF66B3;noLabel=0;comic=0;recursiveResize=1;" parent="1" vertex="1">
            <mxGeometry x="-1174" y="-460" width="170" height="100" as="geometry" />
          </mxCell>
        </object>
        <object label="&lt;font color=&quot;#ffffff&quot;&gt;&amp;lt;%type%&amp;gt;&lt;br&gt;资料审核申请&lt;br&gt;%createAt%&lt;br&gt;%expireAt%&lt;br&gt;&lt;/font&gt;" placeholders="1" type="Fulfilment" name="Fulfilment Request" createAt="create_at" expireAt="expire_at" id="9WLNM4YeZtYHizWp_HL_-108">
          <mxCell style="rounded=1;whiteSpace=wrap;html=1;fillColor=#FF66B3;noLabel=0;comic=0;recursiveResize=1;" parent="1" vertex="1">
            <mxGeometry x="-944" y="-460" width="170" height="100" as="geometry" />
          </mxCell>
        </object>
        <object label="&lt;font color=&quot;#ffffff&quot;&gt;&amp;lt;%type%&amp;gt;&lt;br&gt;资料审核&lt;br&gt;%createAt%&lt;br&gt;&lt;/font&gt;" placeholders="1" type="Fulfilment" name="Fulfilment Confirmation" createAt="create_at" id="9WLNM4YeZtYHizWp_HL_-110">
          <mxCell style="rounded=1;whiteSpace=wrap;html=1;fillColor=#FF66B3;noLabel=0;comic=0;recursiveResize=1;" parent="1" vertex="1">
            <mxGeometry x="-944" y="-320" width="170" height="100" as="geometry" />
          </mxCell>
        </object>
        <object label="&lt;font color=&quot;#ffffff&quot;&gt;&amp;lt;%type%&amp;gt;&lt;br&gt;商家账号开通结果&lt;br&gt;%createAt%&lt;br&gt;&lt;/font&gt;" placeholders="1" type="Fulfilment" name="Fulfilment Confirmation" createAt="create_at" id="9WLNM4YeZtYHizWp_HL_-112">
          <mxCell style="rounded=1;whiteSpace=wrap;html=1;fillColor=#FF66B3;noLabel=0;comic=0;recursiveResize=1;" parent="1" vertex="1">
            <mxGeometry x="-1174" y="-320" width="170" height="100" as="geometry" />
          </mxCell>
        </object>
        <object label="&lt;font color=&quot;#ffffff&quot;&gt;&amp;lt;%type%&amp;gt;&lt;br&gt;押金支付申请&lt;br&gt;%createAt%&lt;br&gt;%expireAt%&lt;br&gt;&lt;/font&gt;" placeholders="1" type="Fulfilment" name="Fulfilment Request" createAt="create_at" expireAt="expire_at" id="9WLNM4YeZtYHizWp_HL_-113">
          <mxCell style="rounded=1;whiteSpace=wrap;html=1;fillColor=#FF66B3;noLabel=0;comic=0;recursiveResize=1;" parent="1" vertex="1">
            <mxGeometry x="-1600" y="-460" width="170" height="100" as="geometry" />
          </mxCell>
        </object>
        <object label="&lt;font color=&quot;#ffffff&quot;&gt;&amp;lt;%type%&amp;gt;&lt;br&gt;&lt;br&gt;&lt;b&gt;押金支付结果&lt;br&gt;&lt;/b&gt;&lt;br&gt;%createAt%&lt;br&gt;&lt;/font&gt;" placeholders="1" type="evidence" name="Evidence As Role" createAt="created_at" id="9WLNM4YeZtYHizWp_HL_-115">
          <mxCell style="rounded=1;whiteSpace=wrap;html=1;noLabel=0;comic=0;recursiveResize=1;fillColor=#FFA033;" parent="1" vertex="1">
            <mxGeometry x="-1600" y="-320" width="170" height="100" as="geometry" />
          </mxCell>
        </object>
        <object label="&lt;font color=&quot;#ffffff&quot;&gt;&amp;lt;%type%&amp;gt;&lt;br&gt;银联支付凭证&lt;br&gt;%createAt%&lt;br&gt;&lt;/font&gt;" placeholders="1" type="Fulfilment" name="Fulfilment Confirmation" createAt="create_at" id="9WLNM4YeZtYHizWp_HL_-116">
          <mxCell style="rounded=1;whiteSpace=wrap;html=1;fillColor=#FF66B3;noLabel=0;comic=0;recursiveResize=1;" parent="1" vertex="1">
            <mxGeometry x="-1700" y="-20" width="170" height="100" as="geometry" />
          </mxCell>
        </object>
        <object label="&lt;font color=&quot;#ffffff&quot;&gt;&amp;lt;%type%&amp;gt;&lt;br&gt;对公转账凭证&lt;br&gt;%createAt%&lt;br&gt;&lt;/font&gt;" placeholders="1" type="Fulfilment" name="Fulfilment Confirmation" createAt="create_at" id="9WLNM4YeZtYHizWp_HL_-117">
          <mxCell style="rounded=1;whiteSpace=wrap;html=1;fillColor=#FF66B3;noLabel=0;comic=0;recursiveResize=1;" parent="1" vertex="1">
            <mxGeometry x="-1500" y="-20" width="170" height="100" as="geometry" />
          </mxCell>
        </object>
        <mxCell id="9WLNM4YeZtYHizWp_HL_-118" style="edgeStyle=none;rounded=0;orthogonalLoop=1;jettySize=auto;html=1;exitX=0.5;exitY=0;exitDx=0;exitDy=0;endArrow=block;endFill=0;dashed=1;entryX=0.5;entryY=1;entryDx=0;entryDy=0;" parent="1" source="9WLNM4YeZtYHizWp_HL_-117" target="9WLNM4YeZtYHizWp_HL_-115" edge="1">
          <mxGeometry relative="1" as="geometry">
            <mxPoint x="-1330" y="-100" as="sourcePoint" />
            <mxPoint x="-1260" y="-100" as="targetPoint" />
          </mxGeometry>
        </mxCell>
        <mxCell id="9WLNM4YeZtYHizWp_HL_-121" style="edgeStyle=none;rounded=0;orthogonalLoop=1;jettySize=auto;html=1;exitX=0.5;exitY=0;exitDx=0;exitDy=0;endArrow=block;endFill=0;dashed=1;entryX=0.5;entryY=1;entryDx=0;entryDy=0;" parent="1" source="9WLNM4YeZtYHizWp_HL_-116" target="9WLNM4YeZtYHizWp_HL_-115" edge="1">
          <mxGeometry relative="1" as="geometry">
            <mxPoint x="-1330" y="-100" as="sourcePoint" />
            <mxPoint x="-1260" y="-100" as="targetPoint" />
          </mxGeometry>
        </mxCell>
        <object label="&lt;font color=&quot;#ffffff&quot;&gt;&amp;lt;%type%&amp;gt;&lt;br&gt;商家账号注销申请&lt;br&gt;%createAt%&lt;br&gt;%expireAt%&lt;br&gt;&lt;/font&gt;" placeholders="1" type="Fulfilment" name="Fulfilment Request" createAt="create_at" expireAt="expire_at" id="9WLNM4YeZtYHizWp_HL_-122">
          <mxCell style="rounded=1;whiteSpace=wrap;html=1;fillColor=#FF66B3;noLabel=0;comic=0;recursiveResize=1;" parent="1" vertex="1">
            <mxGeometry x="-724" y="-460" width="170" height="100" as="geometry" />
          </mxCell>
        </object>
        <object label="&lt;font color=&quot;#ffffff&quot;&gt;&amp;lt;%type%&amp;gt;&lt;br&gt;商家账号注销结果&lt;br&gt;%createAt%&lt;br&gt;&lt;/font&gt;" placeholders="1" type="Fulfilment" name="Fulfilment Confirmation" createAt="create_at" id="9WLNM4YeZtYHizWp_HL_-123">
          <mxCell style="rounded=1;whiteSpace=wrap;html=1;fillColor=#FF66B3;noLabel=0;comic=0;recursiveResize=1;" parent="1" vertex="1">
            <mxGeometry x="-724" y="-320" width="170" height="100" as="geometry" />
          </mxCell>
        </object>
        <object label="&lt;font color=&quot;#ffffff&quot;&gt;&amp;lt;%type%&amp;gt;&lt;br&gt;提现申请&lt;br&gt;%createAt%&lt;br&gt;%expireAt%&lt;br&gt;&lt;/font&gt;" placeholders="1" type="Fulfilment" name="Fulfilment Request" createAt="create_at" expireAt="expire_at" id="9WLNM4YeZtYHizWp_HL_-124">
          <mxCell style="rounded=1;whiteSpace=wrap;html=1;fillColor=#FF66B3;noLabel=0;comic=0;recursiveResize=1;" parent="1" vertex="1">
            <mxGeometry x="-504" y="-460" width="170" height="100" as="geometry" />
          </mxCell>
        </object>
        <object label="&lt;font color=&quot;#ffffff&quot;&gt;&amp;lt;%type%&amp;gt;&lt;br&gt;提现结果&lt;br&gt;%createAt%&lt;br&gt;&lt;/font&gt;" placeholders="1" type="Fulfilment" name="Fulfilment Confirmation" createAt="create_at" id="9WLNM4YeZtYHizWp_HL_-125">
          <mxCell style="rounded=1;whiteSpace=wrap;html=1;fillColor=#FF66B3;noLabel=0;comic=0;recursiveResize=1;" parent="1" vertex="1">
            <mxGeometry x="-504" y="-320" width="170" height="100" as="geometry" />
          </mxCell>
        </object>
        <object label="&lt;font color=&quot;#ffffff&quot;&gt;&amp;lt;%type%&amp;gt;&lt;br&gt;开具押金收据申请&lt;br&gt;%createAt%&lt;br&gt;%expireAt%&lt;br&gt;&lt;/font&gt;" placeholders="1" type="Fulfilment" name="Fulfilment Request" createAt="create_at" expireAt="expire_at" id="9WLNM4YeZtYHizWp_HL_-126">
          <mxCell style="rounded=1;whiteSpace=wrap;html=1;fillColor=#FF66B3;noLabel=0;comic=0;recursiveResize=1;" parent="1" vertex="1">
            <mxGeometry x="-1400" y="-460" width="170" height="100" as="geometry" />
          </mxCell>
        </object>
        <object label="&lt;font color=&quot;#ffffff&quot;&gt;&amp;lt;%type%&amp;gt;&lt;br&gt;开具押金收据结果&lt;br&gt;%createAt%&lt;br&gt;&lt;/font&gt;" placeholders="1" type="Fulfilment" name="Fulfilment Confirmation" createAt="create_at" id="9WLNM4YeZtYHizWp_HL_-127">
          <mxCell style="rounded=1;whiteSpace=wrap;html=1;fillColor=#FF66B3;noLabel=0;comic=0;recursiveResize=1;" parent="1" vertex="1">
            <mxGeometry x="-1400" y="-320" width="170" height="100" as="geometry" />
          </mxCell>
        </object>
        <object label="&lt;font color=&quot;#ffffff&quot;&gt;&amp;lt;%type%&amp;gt;&lt;br&gt;服务情况审查申请&lt;br&gt;%createAt%&lt;br&gt;%expireAt%&lt;br&gt;&lt;/font&gt;" placeholders="1" type="Fulfilment" name="Fulfilment Request" createAt="create_at" expireAt="expire_at" id="9WLNM4YeZtYHizWp_HL_-128">
          <mxCell style="rounded=1;whiteSpace=wrap;html=1;fillColor=#FF66B3;noLabel=0;comic=0;recursiveResize=1;" parent="1" vertex="1">
            <mxGeometry x="-289" y="-460" width="170" height="100" as="geometry" />
          </mxCell>
        </object>
        <object label="&lt;font color=&quot;#ffffff&quot;&gt;&amp;lt;%type%&amp;gt;&lt;br&gt;服务情况审查结果&lt;br&gt;%createAt%&lt;br&gt;&lt;/font&gt;" placeholders="1" type="Fulfilment" name="Fulfilment Confirmation" createAt="create_at" id="9WLNM4YeZtYHizWp_HL_-129">
          <mxCell style="rounded=1;whiteSpace=wrap;html=1;fillColor=#FF66B3;noLabel=0;comic=0;recursiveResize=1;" parent="1" vertex="1">
            <mxGeometry x="-289" y="-320" width="170" height="100" as="geometry" />
          </mxCell>
        </object>
        <object label="&lt;font color=&quot;#ffffff&quot;&gt;&amp;lt;%type%&amp;gt;&lt;br&gt;押金扣减申请&lt;br&gt;%createAt%&lt;br&gt;%expireAt%&lt;br&gt;&lt;/font&gt;" placeholders="1" type="Fulfilment" name="Fulfilment Request" createAt="create_at" expireAt="expire_at" id="9WLNM4YeZtYHizWp_HL_-130">
          <mxCell style="rounded=1;whiteSpace=wrap;html=1;fillColor=#FF66B3;noLabel=0;comic=0;recursiveResize=1;" parent="1" vertex="1">
            <mxGeometry x="-170" y="-790" width="170" height="100" as="geometry" />
          </mxCell>
        </object>
        <object label="&lt;font color=&quot;#ffffff&quot;&gt;&amp;lt;%type%&amp;gt;&lt;br&gt;押金扣减结果&lt;br&gt;%createAt%&lt;br&gt;&lt;/font&gt;" placeholders="1" type="Fulfilment" name="Fulfilment Confirmation" createAt="create_at" id="9WLNM4YeZtYHizWp_HL_-131">
          <mxCell style="rounded=1;whiteSpace=wrap;html=1;fillColor=#FF66B3;noLabel=0;comic=0;recursiveResize=1;" parent="1" vertex="1">
            <mxGeometry x="50" y="-790" width="170" height="100" as="geometry" />
          </mxCell>
        </object>
        <object label="&lt;font color=&quot;#ffffff&quot;&gt;&amp;lt;%type%&amp;gt;&lt;br&gt;开具押金扣减发票申请&lt;br&gt;%createAt%&lt;br&gt;%expireAt%&lt;br&gt;&lt;/font&gt;" placeholders="1" type="Fulfilment" name="Fulfilment Request" createAt="create_at" expireAt="expire_at" id="9WLNM4YeZtYHizWp_HL_-132">
          <mxCell style="rounded=1;whiteSpace=wrap;html=1;fillColor=#FF66B3;noLabel=0;comic=0;recursiveResize=1;" parent="1" vertex="1">
            <mxGeometry x="-170" y="-970" width="170" height="100" as="geometry" />
          </mxCell>
        </object>
        <object label="&lt;font color=&quot;#ffffff&quot;&gt;&amp;lt;%type%&amp;gt;&lt;br&gt;开具押金扣减发票结果&lt;br&gt;%createAt%&lt;br&gt;&lt;/font&gt;" placeholders="1" type="Fulfilment" name="Fulfilment Confirmation" createAt="create_at" id="9WLNM4YeZtYHizWp_HL_-133">
          <mxCell style="rounded=1;whiteSpace=wrap;html=1;fillColor=#FF66B3;noLabel=0;comic=0;recursiveResize=1;" parent="1" vertex="1">
            <mxGeometry x="50" y="-970" width="170" height="100" as="geometry" />
          </mxCell>
        </object>
        <mxCell id="9WLNM4YeZtYHizWp_HL_-134" style="rounded=0;orthogonalLoop=1;jettySize=auto;html=1;exitX=0.5;exitY=1;exitDx=0;exitDy=0;entryX=0.5;entryY=0;entryDx=0;entryDy=0;endArrow=none;endFill=0;" parent="1" source="9WLNM4YeZtYHizWp_HL_-1" target="9WLNM4YeZtYHizWp_HL_-113" edge="1">
          <mxGeometry relative="1" as="geometry">
            <mxPoint x="-1020" y="-520" as="sourcePoint" />
            <mxPoint x="-920" y="-520" as="targetPoint" />
          </mxGeometry>
        </mxCell>
        <mxCell id="9WLNM4YeZtYHizWp_HL_-135" value="1" style="edgeLabel;html=1;align=center;verticalAlign=middle;resizable=0;points=[];" parent="9WLNM4YeZtYHizWp_HL_-134" vertex="1" connectable="0">
          <mxGeometry x="-0.82" relative="1" as="geometry">
            <mxPoint y="-10" as="offset" />
          </mxGeometry>
        </mxCell>
        <mxCell id="9WLNM4YeZtYHizWp_HL_-136" value="1" style="edgeLabel;html=1;align=center;verticalAlign=middle;resizable=0;points=[];" parent="9WLNM4YeZtYHizWp_HL_-134" vertex="1" connectable="0">
          <mxGeometry x="0.72" y="-1" relative="1" as="geometry">
            <mxPoint y="-11" as="offset" />
          </mxGeometry>
        </mxCell>
        <mxCell id="9WLNM4YeZtYHizWp_HL_-137" style="rounded=0;orthogonalLoop=1;jettySize=auto;html=1;exitX=0.5;exitY=1;exitDx=0;exitDy=0;endArrow=none;endFill=0;" parent="1" source="9WLNM4YeZtYHizWp_HL_-1" target="9WLNM4YeZtYHizWp_HL_-107" edge="1">
          <mxGeometry relative="1" as="geometry">
            <mxPoint x="-815" y="-720" as="sourcePoint" />
            <mxPoint x="-1505" y="-450" as="targetPoint" />
          </mxGeometry>
        </mxCell>
        <mxCell id="9WLNM4YeZtYHizWp_HL_-138" value="1" style="edgeLabel;html=1;align=center;verticalAlign=middle;resizable=0;points=[];" parent="9WLNM4YeZtYHizWp_HL_-137" vertex="1" connectable="0">
          <mxGeometry x="-0.82" relative="1" as="geometry">
            <mxPoint y="-10" as="offset" />
          </mxGeometry>
        </mxCell>
        <mxCell id="9WLNM4YeZtYHizWp_HL_-139" value="1" style="edgeLabel;html=1;align=center;verticalAlign=middle;resizable=0;points=[];" parent="9WLNM4YeZtYHizWp_HL_-137" vertex="1" connectable="0">
          <mxGeometry x="0.72" y="-1" relative="1" as="geometry">
            <mxPoint y="-11" as="offset" />
          </mxGeometry>
        </mxCell>
        <mxCell id="9WLNM4YeZtYHizWp_HL_-140" style="rounded=0;orthogonalLoop=1;jettySize=auto;html=1;exitX=0.5;exitY=1;exitDx=0;exitDy=0;entryX=0.5;entryY=0;entryDx=0;entryDy=0;endArrow=none;endFill=0;" parent="1" source="9WLNM4YeZtYHizWp_HL_-1" target="9WLNM4YeZtYHizWp_HL_-108" edge="1">
          <mxGeometry relative="1" as="geometry">
            <mxPoint x="-805" y="-710" as="sourcePoint" />
            <mxPoint x="-1495" y="-440" as="targetPoint" />
          </mxGeometry>
        </mxCell>
        <mxCell id="9WLNM4YeZtYHizWp_HL_-141" value="1" style="edgeLabel;html=1;align=center;verticalAlign=middle;resizable=0;points=[];" parent="9WLNM4YeZtYHizWp_HL_-140" vertex="1" connectable="0">
          <mxGeometry x="-0.82" relative="1" as="geometry">
            <mxPoint y="-10" as="offset" />
          </mxGeometry>
        </mxCell>
        <mxCell id="9WLNM4YeZtYHizWp_HL_-142" value="1" style="edgeLabel;html=1;align=center;verticalAlign=middle;resizable=0;points=[];" parent="9WLNM4YeZtYHizWp_HL_-140" vertex="1" connectable="0">
          <mxGeometry x="0.72" y="-1" relative="1" as="geometry">
            <mxPoint y="-11" as="offset" />
          </mxGeometry>
        </mxCell>
        <mxCell id="9WLNM4YeZtYHizWp_HL_-143" style="rounded=0;orthogonalLoop=1;jettySize=auto;html=1;exitX=0.5;exitY=1;exitDx=0;exitDy=0;endArrow=none;endFill=0;" parent="1" source="9WLNM4YeZtYHizWp_HL_-1" target="9WLNM4YeZtYHizWp_HL_-122" edge="1">
          <mxGeometry relative="1" as="geometry">
            <mxPoint x="-815" y="-720" as="sourcePoint" />
            <mxPoint x="-1025" y="-450" as="targetPoint" />
          </mxGeometry>
        </mxCell>
        <mxCell id="9WLNM4YeZtYHizWp_HL_-144" value="1" style="edgeLabel;html=1;align=center;verticalAlign=middle;resizable=0;points=[];" parent="9WLNM4YeZtYHizWp_HL_-143" vertex="1" connectable="0">
          <mxGeometry x="-0.82" relative="1" as="geometry">
            <mxPoint y="-10" as="offset" />
          </mxGeometry>
        </mxCell>
        <mxCell id="9WLNM4YeZtYHizWp_HL_-145" value="1" style="edgeLabel;html=1;align=center;verticalAlign=middle;resizable=0;points=[];" parent="9WLNM4YeZtYHizWp_HL_-143" vertex="1" connectable="0">
          <mxGeometry x="0.72" y="-1" relative="1" as="geometry">
            <mxPoint y="-11" as="offset" />
          </mxGeometry>
        </mxCell>
        <mxCell id="9WLNM4YeZtYHizWp_HL_-152" style="rounded=0;orthogonalLoop=1;jettySize=auto;html=1;exitX=0.5;exitY=1;exitDx=0;exitDy=0;endArrow=none;endFill=0;entryX=0.5;entryY=0;entryDx=0;entryDy=0;" parent="1" source="9WLNM4YeZtYHizWp_HL_-1" target="9WLNM4YeZtYHizWp_HL_-126" edge="1">
          <mxGeometry relative="1" as="geometry">
            <mxPoint x="-804" y="-720" as="sourcePoint" />
            <mxPoint x="-804.84375" y="-450" as="targetPoint" />
          </mxGeometry>
        </mxCell>
        <mxCell id="9WLNM4YeZtYHizWp_HL_-153" value="1" style="edgeLabel;html=1;align=center;verticalAlign=middle;resizable=0;points=[];" parent="9WLNM4YeZtYHizWp_HL_-152" vertex="1" connectable="0">
          <mxGeometry x="-0.82" relative="1" as="geometry">
            <mxPoint y="-10" as="offset" />
          </mxGeometry>
        </mxCell>
        <mxCell id="9WLNM4YeZtYHizWp_HL_-154" value="1" style="edgeLabel;html=1;align=center;verticalAlign=middle;resizable=0;points=[];" parent="9WLNM4YeZtYHizWp_HL_-152" vertex="1" connectable="0">
          <mxGeometry x="0.72" y="-1" relative="1" as="geometry">
            <mxPoint y="-11" as="offset" />
          </mxGeometry>
        </mxCell>
        <mxCell id="9WLNM4YeZtYHizWp_HL_-155" style="rounded=0;orthogonalLoop=1;jettySize=auto;html=1;exitX=0.5;exitY=1;exitDx=0;exitDy=0;endArrow=none;endFill=0;entryX=0.5;entryY=0;entryDx=0;entryDy=0;" parent="1" source="9WLNM4YeZtYHizWp_HL_-1" target="9WLNM4YeZtYHizWp_HL_-128" edge="1">
          <mxGeometry relative="1" as="geometry">
            <mxPoint x="-804" y="-720" as="sourcePoint" />
            <mxPoint x="-656.34375" y="-450" as="targetPoint" />
          </mxGeometry>
        </mxCell>
        <mxCell id="9WLNM4YeZtYHizWp_HL_-156" value="1" style="edgeLabel;html=1;align=center;verticalAlign=middle;resizable=0;points=[];" parent="9WLNM4YeZtYHizWp_HL_-155" vertex="1" connectable="0">
          <mxGeometry x="-0.82" relative="1" as="geometry">
            <mxPoint y="-10" as="offset" />
          </mxGeometry>
        </mxCell>
        <mxCell id="9WLNM4YeZtYHizWp_HL_-157" value="1" style="edgeLabel;html=1;align=center;verticalAlign=middle;resizable=0;points=[];" parent="9WLNM4YeZtYHizWp_HL_-155" vertex="1" connectable="0">
          <mxGeometry x="0.72" y="-1" relative="1" as="geometry">
            <mxPoint y="-11" as="offset" />
          </mxGeometry>
        </mxCell>
        <object label="" n="1" m="*" id="9WLNM4YeZtYHizWp_HL_-161">
          <mxCell style="rounded=0;orthogonalLoop=1;jettySize=auto;html=1;exitX=1;exitY=0.5;exitDx=0;exitDy=0;endArrow=none;endFill=0;entryX=0;entryY=0.5;entryDx=0;entryDy=0;" parent="1" source="9WLNM4YeZtYHizWp_HL_-1" target="9WLNM4YeZtYHizWp_HL_-130" edge="1">
            <mxGeometry relative="1" as="geometry">
              <mxPoint x="-684" y="-870" as="sourcePoint" />
              <mxPoint x="-289" y="-600" as="targetPoint" />
            </mxGeometry>
          </mxCell>
        </object>
        <mxCell id="9WLNM4YeZtYHizWp_HL_-168" value="N" style="edgeLabel;html=1;align=center;verticalAlign=middle;resizable=0;points=[];" parent="9WLNM4YeZtYHizWp_HL_-161" vertex="1" connectable="0">
          <mxGeometry x="0.8886" y="2" relative="1" as="geometry">
            <mxPoint as="offset" />
          </mxGeometry>
        </mxCell>
        <mxCell id="9WLNM4YeZtYHizWp_HL_-169" value="1" style="edgeLabel;html=1;align=center;verticalAlign=middle;resizable=0;points=[];" parent="9WLNM4YeZtYHizWp_HL_-161" vertex="1" connectable="0">
          <mxGeometry x="-0.9108" y="1" relative="1" as="geometry">
            <mxPoint as="offset" />
          </mxGeometry>
        </mxCell>
        <object label="" n="1" m="*" id="9WLNM4YeZtYHizWp_HL_-173">
          <mxCell style="rounded=0;orthogonalLoop=1;jettySize=auto;html=1;endArrow=none;endFill=0;entryX=0.5;entryY=0;entryDx=0;entryDy=0;" parent="1" target="9WLNM4YeZtYHizWp_HL_-124" edge="1">
            <mxGeometry relative="1" as="geometry">
              <mxPoint x="-810" y="-730" as="sourcePoint" />
              <mxPoint x="-160" y="-730" as="targetPoint" />
            </mxGeometry>
          </mxCell>
        </object>
        <mxCell id="9WLNM4YeZtYHizWp_HL_-174" value="N" style="edgeLabel;html=1;align=center;verticalAlign=middle;resizable=0;points=[];" parent="9WLNM4YeZtYHizWp_HL_-173" vertex="1" connectable="0">
          <mxGeometry x="0.8886" y="2" relative="1" as="geometry">
            <mxPoint as="offset" />
          </mxGeometry>
        </mxCell>
        <mxCell id="9WLNM4YeZtYHizWp_HL_-175" value="1" style="edgeLabel;html=1;align=center;verticalAlign=middle;resizable=0;points=[];" parent="9WLNM4YeZtYHizWp_HL_-173" vertex="1" connectable="0">
          <mxGeometry x="-0.9108" y="1" relative="1" as="geometry">
            <mxPoint as="offset" />
          </mxGeometry>
        </mxCell>
        <object label="" n="1" m="*" id="9WLNM4YeZtYHizWp_HL_-176">
          <mxCell style="rounded=0;orthogonalLoop=1;jettySize=auto;html=1;exitX=1;exitY=0.5;exitDx=0;exitDy=0;endArrow=none;endFill=0;entryX=0;entryY=0.5;entryDx=0;entryDy=0;" parent="1" source="9WLNM4YeZtYHizWp_HL_-1" target="9WLNM4YeZtYHizWp_HL_-132" edge="1">
            <mxGeometry relative="1" as="geometry">
              <mxPoint x="-719" y="-770" as="sourcePoint" />
              <mxPoint x="-160" y="-730" as="targetPoint" />
            </mxGeometry>
          </mxCell>
        </object>
        <mxCell id="9WLNM4YeZtYHizWp_HL_-177" value="N" style="edgeLabel;html=1;align=center;verticalAlign=middle;resizable=0;points=[];" parent="9WLNM4YeZtYHizWp_HL_-176" vertex="1" connectable="0">
          <mxGeometry x="0.8886" y="2" relative="1" as="geometry">
            <mxPoint as="offset" />
          </mxGeometry>
        </mxCell>
        <mxCell id="9WLNM4YeZtYHizWp_HL_-178" value="1" style="edgeLabel;html=1;align=center;verticalAlign=middle;resizable=0;points=[];" parent="9WLNM4YeZtYHizWp_HL_-176" vertex="1" connectable="0">
          <mxGeometry x="-0.9108" y="1" relative="1" as="geometry">
            <mxPoint as="offset" />
          </mxGeometry>
        </mxCell>
        <mxCell id="9WLNM4YeZtYHizWp_HL_-179" style="rounded=0;orthogonalLoop=1;jettySize=auto;html=1;exitX=0.5;exitY=1;exitDx=0;exitDy=0;entryX=0.5;entryY=0;entryDx=0;entryDy=0;endArrow=none;endFill=0;" parent="1" source="9WLNM4YeZtYHizWp_HL_-113" target="9WLNM4YeZtYHizWp_HL_-115" edge="1">
          <mxGeometry relative="1" as="geometry">
            <mxPoint x="-804" y="-720" as="sourcePoint" />
            <mxPoint x="-1505" y="-450" as="targetPoint" />
          </mxGeometry>
        </mxCell>
        <mxCell id="9WLNM4YeZtYHizWp_HL_-180" value="1" style="edgeLabel;html=1;align=center;verticalAlign=middle;resizable=0;points=[];" parent="9WLNM4YeZtYHizWp_HL_-179" vertex="1" connectable="0">
          <mxGeometry x="-0.82" relative="1" as="geometry">
            <mxPoint y="-10" as="offset" />
          </mxGeometry>
        </mxCell>
        <mxCell id="9WLNM4YeZtYHizWp_HL_-181" value="1" style="edgeLabel;html=1;align=center;verticalAlign=middle;resizable=0;points=[];" parent="9WLNM4YeZtYHizWp_HL_-179" vertex="1" connectable="0">
          <mxGeometry x="0.72" y="-1" relative="1" as="geometry">
            <mxPoint y="-11" as="offset" />
          </mxGeometry>
        </mxCell>
        <mxCell id="9WLNM4YeZtYHizWp_HL_-186" style="rounded=0;orthogonalLoop=1;jettySize=auto;html=1;entryX=0.5;entryY=0;entryDx=0;entryDy=0;endArrow=none;endFill=0;exitX=0.5;exitY=1;exitDx=0;exitDy=0;" parent="1" source="9WLNM4YeZtYHizWp_HL_-107" target="9WLNM4YeZtYHizWp_HL_-112" edge="1">
          <mxGeometry relative="1" as="geometry">
            <mxPoint x="-1090" y="-360" as="sourcePoint" />
            <mxPoint x="-1495" y="-300" as="targetPoint" />
          </mxGeometry>
        </mxCell>
        <mxCell id="9WLNM4YeZtYHizWp_HL_-187" value="1" style="edgeLabel;html=1;align=center;verticalAlign=middle;resizable=0;points=[];" parent="9WLNM4YeZtYHizWp_HL_-186" vertex="1" connectable="0">
          <mxGeometry x="-0.82" relative="1" as="geometry">
            <mxPoint y="-10" as="offset" />
          </mxGeometry>
        </mxCell>
        <mxCell id="9WLNM4YeZtYHizWp_HL_-188" value="1" style="edgeLabel;html=1;align=center;verticalAlign=middle;resizable=0;points=[];" parent="9WLNM4YeZtYHizWp_HL_-186" vertex="1" connectable="0">
          <mxGeometry x="0.72" y="-1" relative="1" as="geometry">
            <mxPoint y="-11" as="offset" />
          </mxGeometry>
        </mxCell>
        <mxCell id="9WLNM4YeZtYHizWp_HL_-189" style="rounded=0;orthogonalLoop=1;jettySize=auto;html=1;entryX=0.5;entryY=0;entryDx=0;entryDy=0;endArrow=none;endFill=0;exitX=0.5;exitY=1;exitDx=0;exitDy=0;" parent="1" source="9WLNM4YeZtYHizWp_HL_-126" target="9WLNM4YeZtYHizWp_HL_-127" edge="1">
          <mxGeometry relative="1" as="geometry">
            <mxPoint x="-1079" y="-350" as="sourcePoint" />
            <mxPoint x="-1079" y="-310" as="targetPoint" />
          </mxGeometry>
        </mxCell>
        <mxCell id="9WLNM4YeZtYHizWp_HL_-190" value="1" style="edgeLabel;html=1;align=center;verticalAlign=middle;resizable=0;points=[];" parent="9WLNM4YeZtYHizWp_HL_-189" vertex="1" connectable="0">
          <mxGeometry x="-0.82" relative="1" as="geometry">
            <mxPoint y="-10" as="offset" />
          </mxGeometry>
        </mxCell>
        <mxCell id="9WLNM4YeZtYHizWp_HL_-191" value="1" style="edgeLabel;html=1;align=center;verticalAlign=middle;resizable=0;points=[];" parent="9WLNM4YeZtYHizWp_HL_-189" vertex="1" connectable="0">
          <mxGeometry x="0.72" y="-1" relative="1" as="geometry">
            <mxPoint y="-11" as="offset" />
          </mxGeometry>
        </mxCell>
        <mxCell id="9WLNM4YeZtYHizWp_HL_-192" style="rounded=0;orthogonalLoop=1;jettySize=auto;html=1;endArrow=none;endFill=0;exitX=0.5;exitY=1;exitDx=0;exitDy=0;" parent="1" source="9WLNM4YeZtYHizWp_HL_-108" target="9WLNM4YeZtYHizWp_HL_-110" edge="1">
          <mxGeometry relative="1" as="geometry">
            <mxPoint x="-1079" y="-350" as="sourcePoint" />
            <mxPoint x="-1079" y="-310" as="targetPoint" />
          </mxGeometry>
        </mxCell>
        <mxCell id="9WLNM4YeZtYHizWp_HL_-193" value="1" style="edgeLabel;html=1;align=center;verticalAlign=middle;resizable=0;points=[];" parent="9WLNM4YeZtYHizWp_HL_-192" vertex="1" connectable="0">
          <mxGeometry x="-0.82" relative="1" as="geometry">
            <mxPoint y="-10" as="offset" />
          </mxGeometry>
        </mxCell>
        <mxCell id="9WLNM4YeZtYHizWp_HL_-194" value="1" style="edgeLabel;html=1;align=center;verticalAlign=middle;resizable=0;points=[];" parent="9WLNM4YeZtYHizWp_HL_-192" vertex="1" connectable="0">
          <mxGeometry x="0.72" y="-1" relative="1" as="geometry">
            <mxPoint y="-11" as="offset" />
          </mxGeometry>
        </mxCell>
        <mxCell id="9WLNM4YeZtYHizWp_HL_-195" style="rounded=0;orthogonalLoop=1;jettySize=auto;html=1;endArrow=none;endFill=0;exitX=0.5;exitY=1;exitDx=0;exitDy=0;" parent="1" source="9WLNM4YeZtYHizWp_HL_-122" target="9WLNM4YeZtYHizWp_HL_-123" edge="1">
          <mxGeometry relative="1" as="geometry">
            <mxPoint x="-849" y="-350" as="sourcePoint" />
            <mxPoint x="-849" y="-310" as="targetPoint" />
          </mxGeometry>
        </mxCell>
        <mxCell id="9WLNM4YeZtYHizWp_HL_-196" value="1" style="edgeLabel;html=1;align=center;verticalAlign=middle;resizable=0;points=[];" parent="9WLNM4YeZtYHizWp_HL_-195" vertex="1" connectable="0">
          <mxGeometry x="-0.82" relative="1" as="geometry">
            <mxPoint y="-10" as="offset" />
          </mxGeometry>
        </mxCell>
        <mxCell id="9WLNM4YeZtYHizWp_HL_-197" value="1" style="edgeLabel;html=1;align=center;verticalAlign=middle;resizable=0;points=[];" parent="9WLNM4YeZtYHizWp_HL_-195" vertex="1" connectable="0">
          <mxGeometry x="0.72" y="-1" relative="1" as="geometry">
            <mxPoint y="-11" as="offset" />
          </mxGeometry>
        </mxCell>
        <mxCell id="9WLNM4YeZtYHizWp_HL_-198" style="rounded=0;orthogonalLoop=1;jettySize=auto;html=1;endArrow=none;endFill=0;entryX=0.5;entryY=0;entryDx=0;entryDy=0;" parent="1" target="9WLNM4YeZtYHizWp_HL_-125" edge="1">
          <mxGeometry relative="1" as="geometry">
            <mxPoint x="-420" y="-360" as="sourcePoint" />
            <mxPoint x="-629" y="-310" as="targetPoint" />
          </mxGeometry>
        </mxCell>
        <mxCell id="9WLNM4YeZtYHizWp_HL_-199" value="1" style="edgeLabel;html=1;align=center;verticalAlign=middle;resizable=0;points=[];" parent="9WLNM4YeZtYHizWp_HL_-198" vertex="1" connectable="0">
          <mxGeometry x="-0.82" relative="1" as="geometry">
            <mxPoint y="-10" as="offset" />
          </mxGeometry>
        </mxCell>
        <mxCell id="9WLNM4YeZtYHizWp_HL_-200" value="1" style="edgeLabel;html=1;align=center;verticalAlign=middle;resizable=0;points=[];" parent="9WLNM4YeZtYHizWp_HL_-198" vertex="1" connectable="0">
          <mxGeometry x="0.72" y="-1" relative="1" as="geometry">
            <mxPoint y="-11" as="offset" />
          </mxGeometry>
        </mxCell>
        <mxCell id="9WLNM4YeZtYHizWp_HL_-201" style="rounded=0;orthogonalLoop=1;jettySize=auto;html=1;endArrow=none;endFill=0;exitX=0.5;exitY=1;exitDx=0;exitDy=0;" parent="1" source="9WLNM4YeZtYHizWp_HL_-128" target="9WLNM4YeZtYHizWp_HL_-129" edge="1">
          <mxGeometry relative="1" as="geometry">
            <mxPoint x="-619" y="-340" as="sourcePoint" />
            <mxPoint x="-619" y="-300" as="targetPoint" />
          </mxGeometry>
        </mxCell>
        <mxCell id="9WLNM4YeZtYHizWp_HL_-202" value="1" style="edgeLabel;html=1;align=center;verticalAlign=middle;resizable=0;points=[];" parent="9WLNM4YeZtYHizWp_HL_-201" vertex="1" connectable="0">
          <mxGeometry x="-0.82" relative="1" as="geometry">
            <mxPoint y="-10" as="offset" />
          </mxGeometry>
        </mxCell>
        <mxCell id="9WLNM4YeZtYHizWp_HL_-203" value="1" style="edgeLabel;html=1;align=center;verticalAlign=middle;resizable=0;points=[];" parent="9WLNM4YeZtYHizWp_HL_-201" vertex="1" connectable="0">
          <mxGeometry x="0.72" y="-1" relative="1" as="geometry">
            <mxPoint y="-11" as="offset" />
          </mxGeometry>
        </mxCell>
        <mxCell id="9WLNM4YeZtYHizWp_HL_-207" style="rounded=0;orthogonalLoop=1;jettySize=auto;html=1;endArrow=none;endFill=0;exitX=1;exitY=0.5;exitDx=0;exitDy=0;entryX=0;entryY=0.5;entryDx=0;entryDy=0;" parent="1" source="9WLNM4YeZtYHizWp_HL_-132" target="9WLNM4YeZtYHizWp_HL_-133" edge="1">
          <mxGeometry relative="1" as="geometry">
            <mxPoint x="-599" y="-320" as="sourcePoint" />
            <mxPoint x="-599" y="-280" as="targetPoint" />
          </mxGeometry>
        </mxCell>
        <mxCell id="9WLNM4YeZtYHizWp_HL_-208" value="1" style="edgeLabel;html=1;align=center;verticalAlign=middle;resizable=0;points=[];" parent="9WLNM4YeZtYHizWp_HL_-207" vertex="1" connectable="0">
          <mxGeometry x="-0.82" relative="1" as="geometry">
            <mxPoint y="-10" as="offset" />
          </mxGeometry>
        </mxCell>
        <mxCell id="9WLNM4YeZtYHizWp_HL_-209" value="1" style="edgeLabel;html=1;align=center;verticalAlign=middle;resizable=0;points=[];" parent="9WLNM4YeZtYHizWp_HL_-207" vertex="1" connectable="0">
          <mxGeometry x="0.72" y="-1" relative="1" as="geometry">
            <mxPoint y="-11" as="offset" />
          </mxGeometry>
        </mxCell>
        <object label="&lt;font color=&quot;#ffffff&quot;&gt;&amp;lt;%type%&amp;gt;&lt;br&gt;&lt;br&gt;&lt;b&gt;注册商家&lt;/b&gt;&lt;br&gt;&lt;/font&gt;" placeholders="1" type="party" name="Party" id="9WLNM4YeZtYHizWp_HL_-210">
          <mxCell style="rounded=1;whiteSpace=wrap;html=1;noLabel=0;comic=0;recursiveResize=1;fillColor=#00994D;" parent="1" vertex="1">
            <mxGeometry x="-1240" y="-990" width="170" height="100" as="geometry" />
          </mxCell>
        </object>
        <object label="&lt;font color=&quot;#ffffff&quot;&gt;&amp;lt;%type%&amp;gt;&lt;br&gt;&lt;br&gt;&lt;b&gt;餐饮商家&lt;/b&gt;&lt;br&gt;&lt;/font&gt;" placeholders="1" type="party" name="Party" id="9WLNM4YeZtYHizWp_HL_-211">
          <mxCell style="rounded=1;whiteSpace=wrap;html=1;noLabel=0;comic=0;recursiveResize=1;fillColor=#FFA033;" parent="1" vertex="1">
            <mxGeometry x="-1240" y="-830" width="170" height="100" as="geometry" />
          </mxCell>
        </object>
        <mxCell id="9WLNM4YeZtYHizWp_HL_-212" style="rounded=0;orthogonalLoop=1;jettySize=auto;html=1;exitX=0.5;exitY=1;exitDx=0;exitDy=0;endArrow=none;endFill=0;" parent="1" source="9WLNM4YeZtYHizWp_HL_-210" target="9WLNM4YeZtYHizWp_HL_-211" edge="1">
          <mxGeometry relative="1" as="geometry">
            <mxPoint x="-950" y="-600" as="sourcePoint" />
            <mxPoint x="-850" y="-600" as="targetPoint" />
          </mxGeometry>
        </mxCell>
        <mxCell id="9WLNM4YeZtYHizWp_HL_-213" value="1" style="edgeLabel;html=1;align=center;verticalAlign=middle;resizable=0;points=[];" parent="9WLNM4YeZtYHizWp_HL_-212" vertex="1" connectable="0">
          <mxGeometry x="-0.82" relative="1" as="geometry">
            <mxPoint y="-10" as="offset" />
          </mxGeometry>
        </mxCell>
        <mxCell id="9WLNM4YeZtYHizWp_HL_-214" value="1" style="edgeLabel;html=1;align=center;verticalAlign=middle;resizable=0;points=[];" parent="9WLNM4YeZtYHizWp_HL_-212" vertex="1" connectable="0">
          <mxGeometry x="0.72" y="-1" relative="1" as="geometry">
            <mxPoint y="-11" as="offset" />
          </mxGeometry>
        </mxCell>
        <mxCell id="9WLNM4YeZtYHizWp_HL_-215" style="rounded=0;orthogonalLoop=1;jettySize=auto;html=1;exitX=0;exitY=0.5;exitDx=0;exitDy=0;endArrow=none;endFill=0;entryX=1;entryY=0.5;entryDx=0;entryDy=0;" parent="1" source="9WLNM4YeZtYHizWp_HL_-1" target="9WLNM4YeZtYHizWp_HL_-211" edge="1">
          <mxGeometry relative="1" as="geometry">
            <mxPoint x="-1145" y="-880" as="sourcePoint" />
            <mxPoint x="-1145" y="-820" as="targetPoint" />
          </mxGeometry>
        </mxCell>
        <mxCell id="9WLNM4YeZtYHizWp_HL_-216" value="1" style="edgeLabel;html=1;align=center;verticalAlign=middle;resizable=0;points=[];" parent="9WLNM4YeZtYHizWp_HL_-215" vertex="1" connectable="0">
          <mxGeometry x="-0.82" relative="1" as="geometry">
            <mxPoint y="-10" as="offset" />
          </mxGeometry>
        </mxCell>
        <mxCell id="9WLNM4YeZtYHizWp_HL_-217" value="1" style="edgeLabel;html=1;align=center;verticalAlign=middle;resizable=0;points=[];" parent="9WLNM4YeZtYHizWp_HL_-215" vertex="1" connectable="0">
          <mxGeometry x="0.72" y="-1" relative="1" as="geometry">
            <mxPoint y="-11" as="offset" />
          </mxGeometry>
        </mxCell>
        <mxCell id="9WLNM4YeZtYHizWp_HL_-219" value="商家入住上下文" style="text;html=1;align=center;verticalAlign=middle;resizable=0;points=[];autosize=1;strokeColor=none;fillColor=none;fontSize=36;fontStyle=1" parent="1" vertex="1">
          <mxGeometry x="-1600" y="-710" width="270" height="50" as="geometry" />
        </mxCell>
        <object label="&lt;font color=&quot;#ffffff&quot;&gt;&amp;lt;%type%&amp;gt;&lt;br&gt;餐品采购合同&lt;br&gt;%createAt%&lt;br&gt;&lt;/font&gt;" placeholders="1" type="Contract" name="Name of the Contract" createAt="create_at" id="9WLNM4YeZtYHizWp_HL_-220">
          <mxCell style="rounded=1;whiteSpace=wrap;html=1;fillColor=#FF66B3;noLabel=0;comic=0;recursiveResize=1;" parent="1" vertex="1">
            <mxGeometry x="1550" y="-700" width="170" height="100" as="geometry" />
          </mxCell>
        </object>
        <object label="&lt;font color=&quot;#ffffff&quot; style=&quot;font-size: 12px&quot;&gt;&amp;lt;%type%&amp;gt;&lt;br style=&quot;font-size: 12px&quot;&gt;平台服务费&lt;br style=&quot;font-size: 12px&quot;&gt;%createAt%&lt;br style=&quot;font-size: 12px&quot;&gt;&lt;/font&gt;" placeholders="1" type="Proposal" name="Name of the Proposal" createAt="create_at" id="9WLNM4YeZtYHizWp_HL_-221">
          <mxCell style="rounded=1;whiteSpace=wrap;html=1;fillColor=#FF66B3;noLabel=0;comic=0;recursiveResize=1;fontSize=12;" parent="1" vertex="1">
            <mxGeometry x="1700" y="-880" width="170" height="100" as="geometry" />
          </mxCell>
        </object>
        <object label="&lt;font color=&quot;#ffffff&quot; style=&quot;font-size: 12px&quot;&gt;&amp;lt;rfp&amp;gt;&lt;br style=&quot;font-size: 12px&quot;&gt;平台服务费询价&lt;br style=&quot;font-size: 12px&quot;&gt;%createAt%&lt;br style=&quot;font-size: 12px&quot;&gt;&lt;/font&gt;" placeholders="1" type="Proposal" name="Name of the Proposal" createAt="create_at" id="9WLNM4YeZtYHizWp_HL_-222">
          <mxCell style="rounded=1;whiteSpace=wrap;html=1;fillColor=#FF66B3;noLabel=0;comic=0;recursiveResize=1;fontSize=12;" parent="1" vertex="1">
            <mxGeometry x="1400" y="-880" width="170" height="100" as="geometry" />
          </mxCell>
        </object>
        <object label="&lt;font color=&quot;#ffffff&quot;&gt;&amp;lt;%type%&amp;gt;&lt;br&gt;&lt;br&gt;&lt;b&gt;餐品&lt;/b&gt;&lt;br&gt;&lt;/font&gt;" placeholders="1" type="thing" name="Thing" id="9WLNM4YeZtYHizWp_HL_-223">
          <mxCell style="rounded=1;whiteSpace=wrap;html=1;noLabel=0;comic=0;recursiveResize=1;fillColor=#00994D;fontSize=12;" parent="1" vertex="1">
            <mxGeometry x="1550" y="-1070" width="170" height="100" as="geometry" />
          </mxCell>
        </object>
        <mxCell id="9WLNM4YeZtYHizWp_HL_-226" style="rounded=0;orthogonalLoop=1;jettySize=auto;html=1;endArrow=none;endFill=0;exitX=1;exitY=0.5;exitDx=0;exitDy=0;" parent="1" source="9WLNM4YeZtYHizWp_HL_-130" target="9WLNM4YeZtYHizWp_HL_-131" edge="1">
          <mxGeometry relative="1" as="geometry">
            <mxPoint x="10" y="-910" as="sourcePoint" />
            <mxPoint x="60" y="-910" as="targetPoint" />
          </mxGeometry>
        </mxCell>
        <mxCell id="9WLNM4YeZtYHizWp_HL_-227" value="1" style="edgeLabel;html=1;align=center;verticalAlign=middle;resizable=0;points=[];" parent="9WLNM4YeZtYHizWp_HL_-226" vertex="1" connectable="0">
          <mxGeometry x="-0.82" relative="1" as="geometry">
            <mxPoint y="-10" as="offset" />
          </mxGeometry>
        </mxCell>
        <mxCell id="9WLNM4YeZtYHizWp_HL_-228" value="1" style="edgeLabel;html=1;align=center;verticalAlign=middle;resizable=0;points=[];" parent="9WLNM4YeZtYHizWp_HL_-226" vertex="1" connectable="0">
          <mxGeometry x="0.72" y="-1" relative="1" as="geometry">
            <mxPoint y="-11" as="offset" />
          </mxGeometry>
        </mxCell>
        <mxCell id="9WLNM4YeZtYHizWp_HL_-229" style="rounded=0;orthogonalLoop=1;jettySize=auto;html=1;endArrow=none;endFill=0;exitX=0.5;exitY=0;exitDx=0;exitDy=0;entryX=0.5;entryY=1;entryDx=0;entryDy=0;" parent="1" source="9WLNM4YeZtYHizWp_HL_-222" target="9WLNM4YeZtYHizWp_HL_-223" edge="1">
          <mxGeometry relative="1" as="geometry">
            <mxPoint x="810" y="-780" as="sourcePoint" />
            <mxPoint x="860" y="-780" as="targetPoint" />
          </mxGeometry>
        </mxCell>
        <mxCell id="9WLNM4YeZtYHizWp_HL_-230" value="1" style="edgeLabel;html=1;align=center;verticalAlign=middle;resizable=0;points=[];" parent="9WLNM4YeZtYHizWp_HL_-229" vertex="1" connectable="0">
          <mxGeometry x="-0.82" relative="1" as="geometry">
            <mxPoint y="-10" as="offset" />
          </mxGeometry>
        </mxCell>
        <mxCell id="9WLNM4YeZtYHizWp_HL_-231" value="n" style="edgeLabel;html=1;align=center;verticalAlign=middle;resizable=0;points=[];" parent="9WLNM4YeZtYHizWp_HL_-229" vertex="1" connectable="0">
          <mxGeometry x="0.72" y="-1" relative="1" as="geometry">
            <mxPoint y="-11" as="offset" />
          </mxGeometry>
        </mxCell>
        <mxCell id="9WLNM4YeZtYHizWp_HL_-232" style="rounded=0;orthogonalLoop=1;jettySize=auto;html=1;endArrow=none;endFill=0;exitX=0.5;exitY=1;exitDx=0;exitDy=0;entryX=0.5;entryY=0;entryDx=0;entryDy=0;" parent="1" source="9WLNM4YeZtYHizWp_HL_-223" target="9WLNM4YeZtYHizWp_HL_-221" edge="1">
          <mxGeometry relative="1" as="geometry">
            <mxPoint x="1495" y="-870" as="sourcePoint" />
            <mxPoint x="1645" y="-960" as="targetPoint" />
          </mxGeometry>
        </mxCell>
        <mxCell id="9WLNM4YeZtYHizWp_HL_-233" value="n" style="edgeLabel;html=1;align=center;verticalAlign=middle;resizable=0;points=[];" parent="9WLNM4YeZtYHizWp_HL_-232" vertex="1" connectable="0">
          <mxGeometry x="-0.82" relative="1" as="geometry">
            <mxPoint y="-10" as="offset" />
          </mxGeometry>
        </mxCell>
        <mxCell id="9WLNM4YeZtYHizWp_HL_-234" value="1" style="edgeLabel;html=1;align=center;verticalAlign=middle;resizable=0;points=[];" parent="9WLNM4YeZtYHizWp_HL_-232" vertex="1" connectable="0">
          <mxGeometry x="0.72" y="-1" relative="1" as="geometry">
            <mxPoint y="-11" as="offset" />
          </mxGeometry>
        </mxCell>
        <mxCell id="9WLNM4YeZtYHizWp_HL_-235" style="rounded=0;orthogonalLoop=1;jettySize=auto;html=1;endArrow=none;endFill=0;exitX=0.5;exitY=1;exitDx=0;exitDy=0;entryX=0.5;entryY=0;entryDx=0;entryDy=0;" parent="1" source="9WLNM4YeZtYHizWp_HL_-222" target="9WLNM4YeZtYHizWp_HL_-220" edge="1">
          <mxGeometry relative="1" as="geometry">
            <mxPoint x="1505" y="-860" as="sourcePoint" />
            <mxPoint x="1655" y="-950" as="targetPoint" />
          </mxGeometry>
        </mxCell>
        <mxCell id="9WLNM4YeZtYHizWp_HL_-236" value="1" style="edgeLabel;html=1;align=center;verticalAlign=middle;resizable=0;points=[];" parent="9WLNM4YeZtYHizWp_HL_-235" vertex="1" connectable="0">
          <mxGeometry x="-0.82" relative="1" as="geometry">
            <mxPoint y="-10" as="offset" />
          </mxGeometry>
        </mxCell>
        <mxCell id="9WLNM4YeZtYHizWp_HL_-237" value="1" style="edgeLabel;html=1;align=center;verticalAlign=middle;resizable=0;points=[];" parent="9WLNM4YeZtYHizWp_HL_-235" vertex="1" connectable="0">
          <mxGeometry x="0.72" y="-1" relative="1" as="geometry">
            <mxPoint y="-11" as="offset" />
          </mxGeometry>
        </mxCell>
        <mxCell id="9WLNM4YeZtYHizWp_HL_-238" style="rounded=0;orthogonalLoop=1;jettySize=auto;html=1;endArrow=none;endFill=0;exitX=0.5;exitY=0;exitDx=0;exitDy=0;entryX=0.5;entryY=1;entryDx=0;entryDy=0;" parent="1" source="9WLNM4YeZtYHizWp_HL_-220" target="9WLNM4YeZtYHizWp_HL_-221" edge="1">
          <mxGeometry relative="1" as="geometry">
            <mxPoint x="1515" y="-850" as="sourcePoint" />
            <mxPoint x="1665" y="-940" as="targetPoint" />
          </mxGeometry>
        </mxCell>
        <mxCell id="9WLNM4YeZtYHizWp_HL_-239" value="1" style="edgeLabel;html=1;align=center;verticalAlign=middle;resizable=0;points=[];" parent="9WLNM4YeZtYHizWp_HL_-238" vertex="1" connectable="0">
          <mxGeometry x="-0.82" relative="1" as="geometry">
            <mxPoint y="-10" as="offset" />
          </mxGeometry>
        </mxCell>
        <mxCell id="9WLNM4YeZtYHizWp_HL_-240" value="1" style="edgeLabel;html=1;align=center;verticalAlign=middle;resizable=0;points=[];" parent="9WLNM4YeZtYHizWp_HL_-238" vertex="1" connectable="0">
          <mxGeometry x="0.72" y="-1" relative="1" as="geometry">
            <mxPoint y="-11" as="offset" />
          </mxGeometry>
        </mxCell>
        <object label="&lt;font color=&quot;#ffffff&quot;&gt;&amp;lt;%type%&amp;gt;&lt;br&gt;&lt;br&gt;&lt;b&gt;注册商家&lt;/b&gt;&lt;br&gt;&lt;/font&gt;" placeholders="1" type="party" name="Party" id="9WLNM4YeZtYHizWp_HL_-241">
          <mxCell style="rounded=1;whiteSpace=wrap;html=1;noLabel=0;comic=0;recursiveResize=1;fillColor=#00994D;" parent="1" vertex="1">
            <mxGeometry x="1990" y="-860" width="170" height="100" as="geometry" />
          </mxCell>
        </object>
        <object label="&lt;font color=&quot;#ffffff&quot;&gt;&amp;lt;%type%&amp;gt;&lt;br&gt;&lt;br&gt;&lt;b&gt;餐饮商家&lt;/b&gt;&lt;br&gt;&lt;/font&gt;" placeholders="1" type="party" name="Party" id="9WLNM4YeZtYHizWp_HL_-242">
          <mxCell style="rounded=1;whiteSpace=wrap;html=1;noLabel=0;comic=0;recursiveResize=1;fillColor=#FFA033;" parent="1" vertex="1">
            <mxGeometry x="1990" y="-700" width="170" height="100" as="geometry" />
          </mxCell>
        </object>
        <mxCell id="9WLNM4YeZtYHizWp_HL_-243" style="rounded=0;orthogonalLoop=1;jettySize=auto;html=1;exitX=0.5;exitY=1;exitDx=0;exitDy=0;endArrow=none;endFill=0;" parent="1" source="9WLNM4YeZtYHizWp_HL_-241" target="9WLNM4YeZtYHizWp_HL_-242" edge="1">
          <mxGeometry relative="1" as="geometry">
            <mxPoint x="2280" y="-470" as="sourcePoint" />
            <mxPoint x="2380" y="-470" as="targetPoint" />
          </mxGeometry>
        </mxCell>
        <mxCell id="9WLNM4YeZtYHizWp_HL_-244" value="1" style="edgeLabel;html=1;align=center;verticalAlign=middle;resizable=0;points=[];" parent="9WLNM4YeZtYHizWp_HL_-243" vertex="1" connectable="0">
          <mxGeometry x="-0.82" relative="1" as="geometry">
            <mxPoint y="-10" as="offset" />
          </mxGeometry>
        </mxCell>
        <mxCell id="9WLNM4YeZtYHizWp_HL_-245" value="1" style="edgeLabel;html=1;align=center;verticalAlign=middle;resizable=0;points=[];" parent="9WLNM4YeZtYHizWp_HL_-243" vertex="1" connectable="0">
          <mxGeometry x="0.72" y="-1" relative="1" as="geometry">
            <mxPoint y="-11" as="offset" />
          </mxGeometry>
        </mxCell>
        <mxCell id="9WLNM4YeZtYHizWp_HL_-247" style="rounded=0;orthogonalLoop=1;jettySize=auto;html=1;endArrow=none;endFill=0;exitX=1;exitY=0.5;exitDx=0;exitDy=0;entryX=0;entryY=0.5;entryDx=0;entryDy=0;" parent="1" source="9WLNM4YeZtYHizWp_HL_-220" target="9WLNM4YeZtYHizWp_HL_-242" edge="1">
          <mxGeometry relative="1" as="geometry">
            <mxPoint x="1645" y="-690" as="sourcePoint" />
            <mxPoint x="1795" y="-770" as="targetPoint" />
          </mxGeometry>
        </mxCell>
        <mxCell id="9WLNM4YeZtYHizWp_HL_-248" value="1" style="edgeLabel;html=1;align=center;verticalAlign=middle;resizable=0;points=[];" parent="9WLNM4YeZtYHizWp_HL_-247" vertex="1" connectable="0">
          <mxGeometry x="-0.82" relative="1" as="geometry">
            <mxPoint y="-10" as="offset" />
          </mxGeometry>
        </mxCell>
        <mxCell id="9WLNM4YeZtYHizWp_HL_-249" value="1" style="edgeLabel;html=1;align=center;verticalAlign=middle;resizable=0;points=[];" parent="9WLNM4YeZtYHizWp_HL_-247" vertex="1" connectable="0">
          <mxGeometry x="0.72" y="-1" relative="1" as="geometry">
            <mxPoint y="-11" as="offset" />
          </mxGeometry>
        </mxCell>
        <object label="&lt;font color=&quot;#ffffff&quot;&gt;&amp;lt;%type%&amp;gt;&lt;br&gt;上架商品申请&lt;br&gt;%createAt%&lt;br&gt;%expireAt%&lt;br&gt;&lt;/font&gt;" placeholders="1" type="Fulfilment" name="Fulfilment Request" createAt="create_at" expireAt="expire_at" id="9WLNM4YeZtYHizWp_HL_-250">
          <mxCell style="rounded=1;whiteSpace=wrap;html=1;fillColor=#FF66B3;noLabel=0;comic=0;recursiveResize=1;" parent="1" vertex="1">
            <mxGeometry x="2230" y="-434.15" width="170" height="100" as="geometry" />
          </mxCell>
        </object>
        <object label="&lt;font color=&quot;#ffffff&quot;&gt;&amp;lt;%type%&amp;gt;&lt;br&gt;上架商品结果&lt;br&gt;%createAt%&lt;br&gt;&lt;/font&gt;" placeholders="1" type="Fulfilment" name="Fulfilment Confirmation" createAt="create_at" id="9WLNM4YeZtYHizWp_HL_-251">
          <mxCell style="rounded=1;whiteSpace=wrap;html=1;fillColor=#FF66B3;noLabel=0;comic=0;recursiveResize=1;" parent="1" vertex="1">
            <mxGeometry x="2230" y="-294.15" width="170" height="100" as="geometry" />
          </mxCell>
        </object>
        <mxCell id="9WLNM4YeZtYHizWp_HL_-252" style="rounded=0;orthogonalLoop=1;jettySize=auto;html=1;endArrow=none;endFill=0;exitX=0.5;exitY=1;exitDx=0;exitDy=0;entryX=0.5;entryY=0;entryDx=0;entryDy=0;" parent="1" source="9WLNM4YeZtYHizWp_HL_-250" target="9WLNM4YeZtYHizWp_HL_-251" edge="1">
          <mxGeometry relative="1" as="geometry">
            <mxPoint x="2410" y="-554.15" as="sourcePoint" />
            <mxPoint x="2315" y="-304.15" as="targetPoint" />
          </mxGeometry>
        </mxCell>
        <mxCell id="9WLNM4YeZtYHizWp_HL_-253" value="1" style="edgeLabel;html=1;align=center;verticalAlign=middle;resizable=0;points=[];" parent="9WLNM4YeZtYHizWp_HL_-252" vertex="1" connectable="0">
          <mxGeometry x="-0.82" relative="1" as="geometry">
            <mxPoint y="-10" as="offset" />
          </mxGeometry>
        </mxCell>
        <mxCell id="9WLNM4YeZtYHizWp_HL_-254" value="1" style="edgeLabel;html=1;align=center;verticalAlign=middle;resizable=0;points=[];" parent="9WLNM4YeZtYHizWp_HL_-252" vertex="1" connectable="0">
          <mxGeometry x="0.72" y="-1" relative="1" as="geometry">
            <mxPoint y="-11" as="offset" />
          </mxGeometry>
        </mxCell>
        <object label="&lt;font color=&quot;#ffffff&quot;&gt;&amp;lt;%type%&amp;gt;&lt;br&gt;下架商品申请&lt;br&gt;%createAt%&lt;br&gt;%expireAt%&lt;br&gt;&lt;/font&gt;" placeholders="1" type="Fulfilment" name="Fulfilment Request" createAt="create_at" expireAt="expire_at" id="9WLNM4YeZtYHizWp_HL_-257">
          <mxCell style="rounded=1;whiteSpace=wrap;html=1;fillColor=#FF66B3;noLabel=0;comic=0;recursiveResize=1;" parent="1" vertex="1">
            <mxGeometry x="2000" y="-434.15" width="170" height="100" as="geometry" />
          </mxCell>
        </object>
        <object label="&lt;font color=&quot;#ffffff&quot;&gt;&amp;lt;%type%&amp;gt;&lt;br&gt;下架商品结果&lt;br&gt;%createAt%&lt;br&gt;&lt;/font&gt;" placeholders="1" type="Fulfilment" name="Fulfilment Confirmation" createAt="create_at" id="9WLNM4YeZtYHizWp_HL_-258">
          <mxCell style="rounded=1;whiteSpace=wrap;html=1;fillColor=#FF66B3;noLabel=0;comic=0;recursiveResize=1;" parent="1" vertex="1">
            <mxGeometry x="2000" y="-294.15" width="170" height="100" as="geometry" />
          </mxCell>
        </object>
        <object label="&lt;font color=&quot;#ffffff&quot;&gt;&amp;lt;%type%&amp;gt;&lt;br&gt;接受订单申请&lt;br&gt;%createAt%&lt;br&gt;%expireAt%&lt;br&gt;&lt;/font&gt;" placeholders="1" type="Fulfilment" name="Fulfilment Request" createAt="create_at" expireAt="expire_at" id="9WLNM4YeZtYHizWp_HL_-262">
          <mxCell style="rounded=1;whiteSpace=wrap;html=1;fillColor=#FF66B3;noLabel=0;comic=0;recursiveResize=1;" parent="1" vertex="1">
            <mxGeometry x="1790" y="-434.15" width="170" height="100" as="geometry" />
          </mxCell>
        </object>
        <object label="&lt;font color=&quot;#ffffff&quot;&gt;&amp;lt;%type%&amp;gt;&lt;br&gt;接受订单结果&lt;br&gt;%createAt%&lt;br&gt;&lt;/font&gt;" placeholders="1" type="Fulfilment" name="Fulfilment Confirmation" createAt="create_at" id="9WLNM4YeZtYHizWp_HL_-263">
          <mxCell style="rounded=1;whiteSpace=wrap;html=1;fillColor=#FF66B3;noLabel=0;comic=0;recursiveResize=1;" parent="1" vertex="1">
            <mxGeometry x="1790" y="-294.15" width="170" height="100" as="geometry" />
          </mxCell>
        </object>
        <mxCell id="9WLNM4YeZtYHizWp_HL_-264" style="rounded=0;orthogonalLoop=1;jettySize=auto;html=1;endArrow=none;endFill=0;exitX=0.5;exitY=1;exitDx=0;exitDy=0;entryX=0.5;entryY=0;entryDx=0;entryDy=0;" parent="1" source="9WLNM4YeZtYHizWp_HL_-262" target="9WLNM4YeZtYHizWp_HL_-263" edge="1">
          <mxGeometry relative="1" as="geometry">
            <mxPoint x="1970" y="-554.15" as="sourcePoint" />
            <mxPoint x="1875" y="-304.15" as="targetPoint" />
          </mxGeometry>
        </mxCell>
        <mxCell id="9WLNM4YeZtYHizWp_HL_-265" value="1" style="edgeLabel;html=1;align=center;verticalAlign=middle;resizable=0;points=[];" parent="9WLNM4YeZtYHizWp_HL_-264" vertex="1" connectable="0">
          <mxGeometry x="-0.82" relative="1" as="geometry">
            <mxPoint y="-10" as="offset" />
          </mxGeometry>
        </mxCell>
        <mxCell id="9WLNM4YeZtYHizWp_HL_-266" value="1" style="edgeLabel;html=1;align=center;verticalAlign=middle;resizable=0;points=[];" parent="9WLNM4YeZtYHizWp_HL_-264" vertex="1" connectable="0">
          <mxGeometry x="0.72" y="-1" relative="1" as="geometry">
            <mxPoint y="-11" as="offset" />
          </mxGeometry>
        </mxCell>
        <object label="&lt;font color=&quot;#ffffff&quot;&gt;&amp;lt;%type%&amp;gt;&lt;br&gt;拒绝订单申请&lt;br&gt;%createAt%&lt;br&gt;%expireAt%&lt;br&gt;&lt;/font&gt;" placeholders="1" type="Fulfilment" name="Fulfilment Request" createAt="create_at" expireAt="expire_at" id="9WLNM4YeZtYHizWp_HL_-267">
          <mxCell style="rounded=1;whiteSpace=wrap;html=1;fillColor=#FF66B3;noLabel=0;comic=0;recursiveResize=1;" parent="1" vertex="1">
            <mxGeometry x="1590" y="-434.15" width="170" height="100" as="geometry" />
          </mxCell>
        </object>
        <object label="&lt;font color=&quot;#ffffff&quot;&gt;&amp;lt;%type%&amp;gt;&lt;br&gt;拒绝订单结果&lt;br&gt;%createAt%&lt;br&gt;&lt;/font&gt;" placeholders="1" type="Fulfilment" name="Fulfilment Confirmation" createAt="create_at" id="9WLNM4YeZtYHizWp_HL_-268">
          <mxCell style="rounded=1;whiteSpace=wrap;html=1;fillColor=#FF66B3;noLabel=0;comic=0;recursiveResize=1;" parent="1" vertex="1">
            <mxGeometry x="1590" y="-294.15" width="170" height="100" as="geometry" />
          </mxCell>
        </object>
        <mxCell id="9WLNM4YeZtYHizWp_HL_-269" style="rounded=0;orthogonalLoop=1;jettySize=auto;html=1;endArrow=none;endFill=0;exitX=0.5;exitY=1;exitDx=0;exitDy=0;entryX=0.5;entryY=0;entryDx=0;entryDy=0;" parent="1" source="9WLNM4YeZtYHizWp_HL_-267" target="9WLNM4YeZtYHizWp_HL_-268" edge="1">
          <mxGeometry relative="1" as="geometry">
            <mxPoint x="1770" y="-554.15" as="sourcePoint" />
            <mxPoint x="1675" y="-304.15" as="targetPoint" />
          </mxGeometry>
        </mxCell>
        <mxCell id="9WLNM4YeZtYHizWp_HL_-270" value="1" style="edgeLabel;html=1;align=center;verticalAlign=middle;resizable=0;points=[];" parent="9WLNM4YeZtYHizWp_HL_-269" vertex="1" connectable="0">
          <mxGeometry x="-0.82" relative="1" as="geometry">
            <mxPoint y="-10" as="offset" />
          </mxGeometry>
        </mxCell>
        <mxCell id="9WLNM4YeZtYHizWp_HL_-271" value="1" style="edgeLabel;html=1;align=center;verticalAlign=middle;resizable=0;points=[];" parent="9WLNM4YeZtYHizWp_HL_-269" vertex="1" connectable="0">
          <mxGeometry x="0.72" y="-1" relative="1" as="geometry">
            <mxPoint y="-11" as="offset" />
          </mxGeometry>
        </mxCell>
        <mxCell id="9WLNM4YeZtYHizWp_HL_-272" style="edgeStyle=none;rounded=0;orthogonalLoop=1;jettySize=auto;html=1;entryX=0.5;entryY=0;entryDx=0;entryDy=0;fontSize=12;" parent="1" source="9WLNM4YeZtYHizWp_HL_-258" target="9WLNM4YeZtYHizWp_HL_-258" edge="1">
          <mxGeometry relative="1" as="geometry" />
        </mxCell>
        <object label="&lt;font color=&quot;#ffffff&quot;&gt;&amp;lt;%type%&amp;gt;&lt;br&gt;出餐申请&lt;br&gt;%createAt%&lt;br&gt;%expireAt%&lt;br&gt;&lt;/font&gt;" placeholders="1" type="Fulfilment" name="Fulfilment Request" createAt="create_at" expireAt="expire_at" id="9WLNM4YeZtYHizWp_HL_-273">
          <mxCell style="rounded=1;whiteSpace=wrap;html=1;fillColor=#FF66B3;noLabel=0;comic=0;recursiveResize=1;" parent="1" vertex="1">
            <mxGeometry x="1366" y="-434.15" width="170" height="100" as="geometry" />
          </mxCell>
        </object>
        <object label="&lt;font color=&quot;#ffffff&quot;&gt;&amp;lt;%type%&amp;gt;&lt;br&gt;配送单生成结果&lt;br&gt;%createAt%&lt;br&gt;&lt;/font&gt;" placeholders="1" type="Fulfilment" name="Fulfilment Confirmation" createAt="create_at" id="9WLNM4YeZtYHizWp_HL_-274">
          <mxCell style="rounded=1;whiteSpace=wrap;html=1;fillColor=#FF66B3;noLabel=0;comic=0;recursiveResize=1;" parent="1" vertex="1">
            <mxGeometry x="1366" y="-294.15" width="170" height="100" as="geometry" />
          </mxCell>
        </object>
        <mxCell id="9WLNM4YeZtYHizWp_HL_-275" style="rounded=0;orthogonalLoop=1;jettySize=auto;html=1;endArrow=none;endFill=0;exitX=0.5;exitY=1;exitDx=0;exitDy=0;entryX=0.5;entryY=0;entryDx=0;entryDy=0;" parent="1" source="9WLNM4YeZtYHizWp_HL_-273" target="9WLNM4YeZtYHizWp_HL_-274" edge="1">
          <mxGeometry relative="1" as="geometry">
            <mxPoint x="1546" y="-554.15" as="sourcePoint" />
            <mxPoint x="1451" y="-304.15" as="targetPoint" />
          </mxGeometry>
        </mxCell>
        <mxCell id="9WLNM4YeZtYHizWp_HL_-276" value="1" style="edgeLabel;html=1;align=center;verticalAlign=middle;resizable=0;points=[];" parent="9WLNM4YeZtYHizWp_HL_-275" vertex="1" connectable="0">
          <mxGeometry x="-0.82" relative="1" as="geometry">
            <mxPoint y="-10" as="offset" />
          </mxGeometry>
        </mxCell>
        <mxCell id="9WLNM4YeZtYHizWp_HL_-277" value="1" style="edgeLabel;html=1;align=center;verticalAlign=middle;resizable=0;points=[];" parent="9WLNM4YeZtYHizWp_HL_-275" vertex="1" connectable="0">
          <mxGeometry x="0.72" y="-1" relative="1" as="geometry">
            <mxPoint y="-11" as="offset" />
          </mxGeometry>
        </mxCell>
        <mxCell id="9WLNM4YeZtYHizWp_HL_-279" style="rounded=0;orthogonalLoop=1;jettySize=auto;html=1;endArrow=none;endFill=0;exitX=0.5;exitY=1;exitDx=0;exitDy=0;entryX=0.5;entryY=0;entryDx=0;entryDy=0;" parent="1" source="9WLNM4YeZtYHizWp_HL_-257" target="9WLNM4YeZtYHizWp_HL_-258" edge="1">
          <mxGeometry relative="1" as="geometry">
            <mxPoint x="2325" y="-324.15" as="sourcePoint" />
            <mxPoint x="2325" y="-284.15" as="targetPoint" />
          </mxGeometry>
        </mxCell>
        <mxCell id="9WLNM4YeZtYHizWp_HL_-280" value="1" style="edgeLabel;html=1;align=center;verticalAlign=middle;resizable=0;points=[];" parent="9WLNM4YeZtYHizWp_HL_-279" vertex="1" connectable="0">
          <mxGeometry x="-0.82" relative="1" as="geometry">
            <mxPoint y="-10" as="offset" />
          </mxGeometry>
        </mxCell>
        <mxCell id="9WLNM4YeZtYHizWp_HL_-281" value="1" style="edgeLabel;html=1;align=center;verticalAlign=middle;resizable=0;points=[];" parent="9WLNM4YeZtYHizWp_HL_-279" vertex="1" connectable="0">
          <mxGeometry x="0.72" y="-1" relative="1" as="geometry">
            <mxPoint y="-11" as="offset" />
          </mxGeometry>
        </mxCell>
        <object label="&lt;font color=&quot;#ffffff&quot;&gt;&amp;lt;%type%&amp;gt;&lt;br&gt;出餐超时结算申请&lt;br&gt;%createAt%&lt;br&gt;%expireAt%&lt;br&gt;&lt;/font&gt;" placeholders="1" type="Fulfilment" name="Fulfilment Request" createAt="create_at" expireAt="expire_at" id="9WLNM4YeZtYHizWp_HL_-282">
          <mxCell style="rounded=1;whiteSpace=wrap;html=1;fillColor=#FF66B3;noLabel=0;comic=0;recursiveResize=1;" parent="1" vertex="1">
            <mxGeometry x="880" y="-434.15" width="170" height="100" as="geometry" />
          </mxCell>
        </object>
        <object label="&lt;font color=&quot;#ffffff&quot;&gt;&amp;lt;%type%&amp;gt;&lt;br&gt;押金扣除&lt;br&gt;%createAt%&lt;br&gt;&lt;/font&gt;" placeholders="1" type="Fulfilment" name="Fulfilment Confirmation" createAt="create_at" id="9WLNM4YeZtYHizWp_HL_-283">
          <mxCell style="rounded=1;whiteSpace=wrap;html=1;fillColor=#FF66B3;noLabel=0;comic=0;recursiveResize=1;" parent="1" vertex="1">
            <mxGeometry x="880" y="-294.15" width="170" height="100" as="geometry" />
          </mxCell>
        </object>
        <mxCell id="9WLNM4YeZtYHizWp_HL_-284" style="rounded=0;orthogonalLoop=1;jettySize=auto;html=1;endArrow=none;endFill=0;exitX=0.5;exitY=1;exitDx=0;exitDy=0;entryX=0.5;entryY=0;entryDx=0;entryDy=0;" parent="1" source="9WLNM4YeZtYHizWp_HL_-282" target="9WLNM4YeZtYHizWp_HL_-283" edge="1">
          <mxGeometry relative="1" as="geometry">
            <mxPoint x="1151" y="-334.14999999999986" as="sourcePoint" />
            <mxPoint x="1050" y="-300" as="targetPoint" />
          </mxGeometry>
        </mxCell>
        <mxCell id="9WLNM4YeZtYHizWp_HL_-285" value="1" style="edgeLabel;html=1;align=center;verticalAlign=middle;resizable=0;points=[];" parent="9WLNM4YeZtYHizWp_HL_-284" vertex="1" connectable="0">
          <mxGeometry x="-0.82" relative="1" as="geometry">
            <mxPoint y="-10" as="offset" />
          </mxGeometry>
        </mxCell>
        <mxCell id="9WLNM4YeZtYHizWp_HL_-286" value="1" style="edgeLabel;html=1;align=center;verticalAlign=middle;resizable=0;points=[];" parent="9WLNM4YeZtYHizWp_HL_-284" vertex="1" connectable="0">
          <mxGeometry x="0.72" y="-1" relative="1" as="geometry">
            <mxPoint y="-11" as="offset" />
          </mxGeometry>
        </mxCell>
        <mxCell id="9WLNM4YeZtYHizWp_HL_-287" style="rounded=0;orthogonalLoop=1;jettySize=auto;html=1;endArrow=none;endFill=0;exitX=0.5;exitY=1;exitDx=0;exitDy=0;entryX=0.5;entryY=0;entryDx=0;entryDy=0;" parent="1" source="9WLNM4YeZtYHizWp_HL_-220" target="9WLNM4YeZtYHizWp_HL_-282" edge="1">
          <mxGeometry relative="1" as="geometry">
            <mxPoint x="1390" y="-530" as="sourcePoint" />
            <mxPoint x="1390" y="-490" as="targetPoint" />
          </mxGeometry>
        </mxCell>
        <mxCell id="9WLNM4YeZtYHizWp_HL_-288" value="1" style="edgeLabel;html=1;align=center;verticalAlign=middle;resizable=0;points=[];" parent="9WLNM4YeZtYHizWp_HL_-287" vertex="1" connectable="0">
          <mxGeometry x="-0.82" relative="1" as="geometry">
            <mxPoint y="-10" as="offset" />
          </mxGeometry>
        </mxCell>
        <mxCell id="9WLNM4YeZtYHizWp_HL_-289" value="N" style="edgeLabel;html=1;align=center;verticalAlign=middle;resizable=0;points=[];" parent="9WLNM4YeZtYHizWp_HL_-287" vertex="1" connectable="0">
          <mxGeometry x="0.72" y="-1" relative="1" as="geometry">
            <mxPoint y="-11" as="offset" />
          </mxGeometry>
        </mxCell>
        <mxCell id="9WLNM4YeZtYHizWp_HL_-290" style="rounded=0;orthogonalLoop=1;jettySize=auto;html=1;endArrow=none;endFill=0;exitX=0.5;exitY=1;exitDx=0;exitDy=0;entryX=0.5;entryY=0;entryDx=0;entryDy=0;" parent="1" source="9WLNM4YeZtYHizWp_HL_-220" target="9WLNM4YeZtYHizWp_HL_-273" edge="1">
          <mxGeometry relative="1" as="geometry">
            <mxPoint x="1645" y="-590" as="sourcePoint" />
            <mxPoint x="1155" y="-420" as="targetPoint" />
          </mxGeometry>
        </mxCell>
        <mxCell id="9WLNM4YeZtYHizWp_HL_-291" value="1" style="edgeLabel;html=1;align=center;verticalAlign=middle;resizable=0;points=[];" parent="9WLNM4YeZtYHizWp_HL_-290" vertex="1" connectable="0">
          <mxGeometry x="-0.82" relative="1" as="geometry">
            <mxPoint y="-10" as="offset" />
          </mxGeometry>
        </mxCell>
        <mxCell id="9WLNM4YeZtYHizWp_HL_-292" value="N" style="edgeLabel;html=1;align=center;verticalAlign=middle;resizable=0;points=[];" parent="9WLNM4YeZtYHizWp_HL_-290" vertex="1" connectable="0">
          <mxGeometry x="0.72" y="-1" relative="1" as="geometry">
            <mxPoint y="-11" as="offset" />
          </mxGeometry>
        </mxCell>
        <mxCell id="9WLNM4YeZtYHizWp_HL_-293" style="rounded=0;orthogonalLoop=1;jettySize=auto;html=1;endArrow=none;endFill=0;exitX=0.5;exitY=1;exitDx=0;exitDy=0;entryX=0.5;entryY=0;entryDx=0;entryDy=0;" parent="1" source="9WLNM4YeZtYHizWp_HL_-220" target="9WLNM4YeZtYHizWp_HL_-267" edge="1">
          <mxGeometry relative="1" as="geometry">
            <mxPoint x="1655" y="-580" as="sourcePoint" />
            <mxPoint x="1165" y="-410" as="targetPoint" />
          </mxGeometry>
        </mxCell>
        <mxCell id="9WLNM4YeZtYHizWp_HL_-294" value="1" style="edgeLabel;html=1;align=center;verticalAlign=middle;resizable=0;points=[];" parent="9WLNM4YeZtYHizWp_HL_-293" vertex="1" connectable="0">
          <mxGeometry x="-0.82" relative="1" as="geometry">
            <mxPoint y="-10" as="offset" />
          </mxGeometry>
        </mxCell>
        <mxCell id="9WLNM4YeZtYHizWp_HL_-295" value="N" style="edgeLabel;html=1;align=center;verticalAlign=middle;resizable=0;points=[];" parent="9WLNM4YeZtYHizWp_HL_-293" vertex="1" connectable="0">
          <mxGeometry x="0.72" y="-1" relative="1" as="geometry">
            <mxPoint y="-11" as="offset" />
          </mxGeometry>
        </mxCell>
        <mxCell id="9WLNM4YeZtYHizWp_HL_-296" style="rounded=0;orthogonalLoop=1;jettySize=auto;html=1;endArrow=none;endFill=0;exitX=0.5;exitY=1;exitDx=0;exitDy=0;entryX=0.5;entryY=0;entryDx=0;entryDy=0;" parent="1" source="9WLNM4YeZtYHizWp_HL_-220" target="9WLNM4YeZtYHizWp_HL_-262" edge="1">
          <mxGeometry relative="1" as="geometry">
            <mxPoint x="1665" y="-570" as="sourcePoint" />
            <mxPoint x="1175" y="-400" as="targetPoint" />
          </mxGeometry>
        </mxCell>
        <mxCell id="9WLNM4YeZtYHizWp_HL_-297" value="1" style="edgeLabel;html=1;align=center;verticalAlign=middle;resizable=0;points=[];" parent="9WLNM4YeZtYHizWp_HL_-296" vertex="1" connectable="0">
          <mxGeometry x="-0.82" relative="1" as="geometry">
            <mxPoint y="-10" as="offset" />
          </mxGeometry>
        </mxCell>
        <mxCell id="9WLNM4YeZtYHizWp_HL_-298" value="N" style="edgeLabel;html=1;align=center;verticalAlign=middle;resizable=0;points=[];" parent="9WLNM4YeZtYHizWp_HL_-296" vertex="1" connectable="0">
          <mxGeometry x="0.72" y="-1" relative="1" as="geometry">
            <mxPoint y="-11" as="offset" />
          </mxGeometry>
        </mxCell>
        <mxCell id="9WLNM4YeZtYHizWp_HL_-299" style="rounded=0;orthogonalLoop=1;jettySize=auto;html=1;endArrow=none;endFill=0;entryX=0.5;entryY=0;entryDx=0;entryDy=0;exitX=0.5;exitY=1;exitDx=0;exitDy=0;" parent="1" source="9WLNM4YeZtYHizWp_HL_-220" target="9WLNM4YeZtYHizWp_HL_-257" edge="1">
          <mxGeometry relative="1" as="geometry">
            <mxPoint x="1640" y="-600" as="sourcePoint" />
            <mxPoint x="1185" y="-390" as="targetPoint" />
          </mxGeometry>
        </mxCell>
        <mxCell id="9WLNM4YeZtYHizWp_HL_-300" value="1" style="edgeLabel;html=1;align=center;verticalAlign=middle;resizable=0;points=[];" parent="9WLNM4YeZtYHizWp_HL_-299" vertex="1" connectable="0">
          <mxGeometry x="-0.82" relative="1" as="geometry">
            <mxPoint y="-10" as="offset" />
          </mxGeometry>
        </mxCell>
        <mxCell id="9WLNM4YeZtYHizWp_HL_-301" value="N" style="edgeLabel;html=1;align=center;verticalAlign=middle;resizable=0;points=[];" parent="9WLNM4YeZtYHizWp_HL_-299" vertex="1" connectable="0">
          <mxGeometry x="0.72" y="-1" relative="1" as="geometry">
            <mxPoint y="-11" as="offset" />
          </mxGeometry>
        </mxCell>
        <mxCell id="9WLNM4YeZtYHizWp_HL_-302" style="rounded=0;orthogonalLoop=1;jettySize=auto;html=1;endArrow=none;endFill=0;entryX=0.5;entryY=0;entryDx=0;entryDy=0;exitX=0.5;exitY=1;exitDx=0;exitDy=0;" parent="1" source="9WLNM4YeZtYHizWp_HL_-220" target="9WLNM4YeZtYHizWp_HL_-250" edge="1">
          <mxGeometry relative="1" as="geometry">
            <mxPoint x="1640" y="-600" as="sourcePoint" />
            <mxPoint x="1195" y="-380" as="targetPoint" />
          </mxGeometry>
        </mxCell>
        <mxCell id="9WLNM4YeZtYHizWp_HL_-303" value="1" style="edgeLabel;html=1;align=center;verticalAlign=middle;resizable=0;points=[];" parent="9WLNM4YeZtYHizWp_HL_-302" vertex="1" connectable="0">
          <mxGeometry x="-0.82" relative="1" as="geometry">
            <mxPoint y="-10" as="offset" />
          </mxGeometry>
        </mxCell>
        <mxCell id="9WLNM4YeZtYHizWp_HL_-304" value="N" style="edgeLabel;html=1;align=center;verticalAlign=middle;resizable=0;points=[];" parent="9WLNM4YeZtYHizWp_HL_-302" vertex="1" connectable="0">
          <mxGeometry x="0.72" y="-1" relative="1" as="geometry">
            <mxPoint y="-11" as="offset" />
          </mxGeometry>
        </mxCell>
        <object label="&lt;font color=&quot;#ffffff&quot;&gt;&amp;lt;%type%&amp;gt;&lt;br&gt;订单结算申请&lt;br&gt;%createAt%&lt;br&gt;%expireAt%&lt;br&gt;&lt;/font&gt;" placeholders="1" type="Fulfilment" name="Fulfilment Request" createAt="create_at" expireAt="expire_at" id="9WLNM4YeZtYHizWp_HL_-305">
          <mxCell style="rounded=1;whiteSpace=wrap;html=1;fillColor=#FF66B3;noLabel=0;comic=0;recursiveResize=1;" parent="1" vertex="1">
            <mxGeometry x="1116" y="-434.15" width="170" height="100" as="geometry" />
          </mxCell>
        </object>
        <object label="&lt;font color=&quot;#ffffff&quot;&gt;&amp;lt;%type%&amp;gt;&lt;br&gt;订单结算结果&lt;br&gt;%createAt%&lt;br&gt;&lt;/font&gt;" placeholders="1" type="Fulfilment" name="Fulfilment Confirmation" createAt="create_at" id="9WLNM4YeZtYHizWp_HL_-306">
          <mxCell style="rounded=1;whiteSpace=wrap;html=1;fillColor=#FF66B3;noLabel=0;comic=0;recursiveResize=1;" parent="1" vertex="1">
            <mxGeometry x="1116" y="-294.15" width="170" height="100" as="geometry" />
          </mxCell>
        </object>
        <mxCell id="9WLNM4YeZtYHizWp_HL_-307" style="rounded=0;orthogonalLoop=1;jettySize=auto;html=1;endArrow=none;endFill=0;exitX=0.5;exitY=1;exitDx=0;exitDy=0;entryX=0.5;entryY=0;entryDx=0;entryDy=0;" parent="1" source="9WLNM4YeZtYHizWp_HL_-305" target="9WLNM4YeZtYHizWp_HL_-306" edge="1">
          <mxGeometry relative="1" as="geometry">
            <mxPoint x="1296" y="-554.15" as="sourcePoint" />
            <mxPoint x="1201" y="-304.15" as="targetPoint" />
          </mxGeometry>
        </mxCell>
        <mxCell id="9WLNM4YeZtYHizWp_HL_-308" value="1" style="edgeLabel;html=1;align=center;verticalAlign=middle;resizable=0;points=[];" parent="9WLNM4YeZtYHizWp_HL_-307" vertex="1" connectable="0">
          <mxGeometry x="-0.82" relative="1" as="geometry">
            <mxPoint y="-10" as="offset" />
          </mxGeometry>
        </mxCell>
        <mxCell id="9WLNM4YeZtYHizWp_HL_-309" value="1" style="edgeLabel;html=1;align=center;verticalAlign=middle;resizable=0;points=[];" parent="9WLNM4YeZtYHizWp_HL_-307" vertex="1" connectable="0">
          <mxGeometry x="0.72" y="-1" relative="1" as="geometry">
            <mxPoint y="-11" as="offset" />
          </mxGeometry>
        </mxCell>
        <mxCell id="9WLNM4YeZtYHizWp_HL_-310" style="rounded=0;orthogonalLoop=1;jettySize=auto;html=1;endArrow=none;endFill=0;entryX=0.5;entryY=0;entryDx=0;entryDy=0;" parent="1" target="9WLNM4YeZtYHizWp_HL_-305" edge="1">
          <mxGeometry relative="1" as="geometry">
            <mxPoint x="1630" y="-600" as="sourcePoint" />
            <mxPoint x="1155" y="-420" as="targetPoint" />
          </mxGeometry>
        </mxCell>
        <mxCell id="9WLNM4YeZtYHizWp_HL_-311" value="1" style="edgeLabel;html=1;align=center;verticalAlign=middle;resizable=0;points=[];" parent="9WLNM4YeZtYHizWp_HL_-310" vertex="1" connectable="0">
          <mxGeometry x="-0.82" relative="1" as="geometry">
            <mxPoint y="-10" as="offset" />
          </mxGeometry>
        </mxCell>
        <mxCell id="9WLNM4YeZtYHizWp_HL_-312" value="N" style="edgeLabel;html=1;align=center;verticalAlign=middle;resizable=0;points=[];" parent="9WLNM4YeZtYHizWp_HL_-310" vertex="1" connectable="0">
          <mxGeometry x="0.72" y="-1" relative="1" as="geometry">
            <mxPoint y="-11" as="offset" />
          </mxGeometry>
        </mxCell>
        <object label="&lt;font color=&quot;#ffffff&quot;&gt;&amp;lt;%type%&amp;gt;&lt;br&gt;餐品采购合同&lt;br&gt;%createAt%&lt;br&gt;&lt;/font&gt;" placeholders="1" type="Contract" name="Name of the Contract" createAt="create_at" id="9WLNM4YeZtYHizWp_HL_-313">
          <mxCell style="rounded=1;whiteSpace=wrap;html=1;fillColor=#FF66B3;noLabel=0;comic=0;recursiveResize=1;" parent="1" vertex="1">
            <mxGeometry x="1660" y="620" width="170" height="100" as="geometry" />
          </mxCell>
        </object>
        <object label="&lt;font color=&quot;#ffffff&quot; style=&quot;font-size: 12px&quot;&gt;&amp;lt;%type%&amp;gt;&lt;br style=&quot;font-size: 12px&quot;&gt;餐品价格&lt;br&gt;%createAt%&lt;br style=&quot;font-size: 12px&quot;&gt;&lt;/font&gt;" placeholders="1" type="Proposal" name="Name of the Proposal" createAt="create_at" id="9WLNM4YeZtYHizWp_HL_-315">
          <mxCell style="rounded=1;whiteSpace=wrap;html=1;fillColor=#FF66B3;noLabel=0;comic=0;recursiveResize=1;fontSize=12;" parent="1" vertex="1">
            <mxGeometry x="1810" y="840" width="170" height="100" as="geometry" />
          </mxCell>
        </object>
        <object label="&lt;font color=&quot;#ffffff&quot; style=&quot;font-size: 12px&quot;&gt;&amp;lt;rfp&amp;gt;&lt;br style=&quot;font-size: 12px&quot;&gt;餐品询价&lt;br style=&quot;font-size: 12px&quot;&gt;%createAt%&lt;br style=&quot;font-size: 12px&quot;&gt;&lt;/font&gt;" placeholders="1" type="Proposal" name="Name of the Proposal" createAt="create_at" id="9WLNM4YeZtYHizWp_HL_-316">
          <mxCell style="rounded=1;whiteSpace=wrap;html=1;fillColor=#FF66B3;noLabel=0;comic=0;recursiveResize=1;fontSize=12;" parent="1" vertex="1">
            <mxGeometry x="1510" y="840" width="170" height="100" as="geometry" />
          </mxCell>
        </object>
        <object label="&lt;font color=&quot;#ffffff&quot;&gt;&amp;lt;%type%&amp;gt;&lt;br&gt;&lt;br&gt;&lt;b&gt;订餐用户&lt;/b&gt;&lt;br&gt;&lt;/font&gt;" placeholders="1" type="party" name="Party" id="sW8kqg0XOElffp0xVwHC-2">
          <mxCell style="rounded=1;whiteSpace=wrap;html=1;noLabel=0;comic=0;recursiveResize=1;fillColor=#FFA033;" vertex="1" parent="1">
            <mxGeometry x="2070" y="620" width="170" height="100" as="geometry" />
          </mxCell>
        </object>
        <object label="&lt;font color=&quot;#ffffff&quot;&gt;&amp;lt;%type%&amp;gt;&lt;br&gt;&lt;br&gt;&lt;b&gt;餐品&lt;/b&gt;&lt;br&gt;&lt;/font&gt;" placeholders="1" type="thing" name="Thing" id="sW8kqg0XOElffp0xVwHC-8">
          <mxCell style="rounded=1;whiteSpace=wrap;html=1;noLabel=0;comic=0;recursiveResize=1;fillColor=#00994D;fontSize=12;" vertex="1" parent="1">
            <mxGeometry x="1660" y="1050" width="170" height="100" as="geometry" />
          </mxCell>
        </object>
        <mxCell id="sW8kqg0XOElffp0xVwHC-9" style="rounded=0;orthogonalLoop=1;jettySize=auto;html=1;endArrow=none;endFill=0;entryX=0.5;entryY=1;entryDx=0;entryDy=0;exitX=0.5;exitY=0;exitDx=0;exitDy=0;" edge="1" parent="1" source="sW8kqg0XOElffp0xVwHC-8" target="9WLNM4YeZtYHizWp_HL_-315">
          <mxGeometry relative="1" as="geometry">
            <mxPoint x="1750" y="1050" as="sourcePoint" />
            <mxPoint x="2180" y="1030" as="targetPoint" />
          </mxGeometry>
        </mxCell>
        <mxCell id="sW8kqg0XOElffp0xVwHC-10" value="1" style="edgeLabel;html=1;align=center;verticalAlign=middle;resizable=0;points=[];" vertex="1" connectable="0" parent="sW8kqg0XOElffp0xVwHC-9">
          <mxGeometry x="-0.82" relative="1" as="geometry">
            <mxPoint y="-10" as="offset" />
          </mxGeometry>
        </mxCell>
        <mxCell id="sW8kqg0XOElffp0xVwHC-11" value="1" style="edgeLabel;html=1;align=center;verticalAlign=middle;resizable=0;points=[];" vertex="1" connectable="0" parent="sW8kqg0XOElffp0xVwHC-9">
          <mxGeometry x="0.72" y="-1" relative="1" as="geometry">
            <mxPoint y="-11" as="offset" />
          </mxGeometry>
        </mxCell>
        <mxCell id="sW8kqg0XOElffp0xVwHC-12" style="rounded=0;orthogonalLoop=1;jettySize=auto;html=1;endArrow=none;endFill=0;exitX=0.5;exitY=1;exitDx=0;exitDy=0;entryX=0.5;entryY=0;entryDx=0;entryDy=0;" edge="1" parent="1" source="9WLNM4YeZtYHizWp_HL_-316" target="sW8kqg0XOElffp0xVwHC-8">
          <mxGeometry relative="1" as="geometry">
            <mxPoint x="1920" y="1040" as="sourcePoint" />
            <mxPoint x="2190" y="1040" as="targetPoint" />
          </mxGeometry>
        </mxCell>
        <mxCell id="sW8kqg0XOElffp0xVwHC-13" value="1" style="edgeLabel;html=1;align=center;verticalAlign=middle;resizable=0;points=[];" vertex="1" connectable="0" parent="sW8kqg0XOElffp0xVwHC-12">
          <mxGeometry x="-0.82" relative="1" as="geometry">
            <mxPoint y="-10" as="offset" />
          </mxGeometry>
        </mxCell>
        <mxCell id="sW8kqg0XOElffp0xVwHC-14" value="1" style="edgeLabel;html=1;align=center;verticalAlign=middle;resizable=0;points=[];" vertex="1" connectable="0" parent="sW8kqg0XOElffp0xVwHC-12">
          <mxGeometry x="0.72" y="-1" relative="1" as="geometry">
            <mxPoint y="-11" as="offset" />
          </mxGeometry>
        </mxCell>
        <mxCell id="sW8kqg0XOElffp0xVwHC-15" style="rounded=0;orthogonalLoop=1;jettySize=auto;html=1;endArrow=none;endFill=0;exitX=0.5;exitY=1;exitDx=0;exitDy=0;entryX=0.5;entryY=0;entryDx=0;entryDy=0;" edge="1" parent="1" source="9WLNM4YeZtYHizWp_HL_-313" target="9WLNM4YeZtYHizWp_HL_-315">
          <mxGeometry relative="1" as="geometry">
            <mxPoint x="1930" y="1050" as="sourcePoint" />
            <mxPoint x="2200" y="1050" as="targetPoint" />
          </mxGeometry>
        </mxCell>
        <mxCell id="sW8kqg0XOElffp0xVwHC-16" value="1" style="edgeLabel;html=1;align=center;verticalAlign=middle;resizable=0;points=[];" vertex="1" connectable="0" parent="sW8kqg0XOElffp0xVwHC-15">
          <mxGeometry x="-0.82" relative="1" as="geometry">
            <mxPoint y="-10" as="offset" />
          </mxGeometry>
        </mxCell>
        <mxCell id="sW8kqg0XOElffp0xVwHC-17" value="N" style="edgeLabel;html=1;align=center;verticalAlign=middle;resizable=0;points=[];" vertex="1" connectable="0" parent="sW8kqg0XOElffp0xVwHC-15">
          <mxGeometry x="0.72" y="-1" relative="1" as="geometry">
            <mxPoint y="-11" as="offset" />
          </mxGeometry>
        </mxCell>
        <mxCell id="sW8kqg0XOElffp0xVwHC-18" style="rounded=0;orthogonalLoop=1;jettySize=auto;html=1;endArrow=none;endFill=0;exitX=0.5;exitY=1;exitDx=0;exitDy=0;entryX=0.529;entryY=0;entryDx=0;entryDy=0;entryPerimeter=0;" edge="1" parent="1" source="9WLNM4YeZtYHizWp_HL_-313" target="9WLNM4YeZtYHizWp_HL_-316">
          <mxGeometry relative="1" as="geometry">
            <mxPoint x="1940" y="1060" as="sourcePoint" />
            <mxPoint x="2210" y="1060" as="targetPoint" />
          </mxGeometry>
        </mxCell>
        <mxCell id="sW8kqg0XOElffp0xVwHC-19" value="1" style="edgeLabel;html=1;align=center;verticalAlign=middle;resizable=0;points=[];" vertex="1" connectable="0" parent="sW8kqg0XOElffp0xVwHC-18">
          <mxGeometry x="-0.82" relative="1" as="geometry">
            <mxPoint y="-10" as="offset" />
          </mxGeometry>
        </mxCell>
        <mxCell id="sW8kqg0XOElffp0xVwHC-20" value="N" style="edgeLabel;html=1;align=center;verticalAlign=middle;resizable=0;points=[];" vertex="1" connectable="0" parent="sW8kqg0XOElffp0xVwHC-18">
          <mxGeometry x="0.72" y="-1" relative="1" as="geometry">
            <mxPoint y="-11" as="offset" />
          </mxGeometry>
        </mxCell>
        <mxCell id="sW8kqg0XOElffp0xVwHC-21" style="rounded=0;orthogonalLoop=1;jettySize=auto;html=1;endArrow=none;endFill=0;exitX=1;exitY=0.5;exitDx=0;exitDy=0;entryX=0;entryY=0.5;entryDx=0;entryDy=0;" edge="1" parent="1" source="9WLNM4YeZtYHizWp_HL_-313" target="sW8kqg0XOElffp0xVwHC-2">
          <mxGeometry relative="1" as="geometry">
            <mxPoint x="1950" y="1070" as="sourcePoint" />
            <mxPoint x="2220" y="1070" as="targetPoint" />
          </mxGeometry>
        </mxCell>
        <mxCell id="sW8kqg0XOElffp0xVwHC-22" value="1" style="edgeLabel;html=1;align=center;verticalAlign=middle;resizable=0;points=[];" vertex="1" connectable="0" parent="sW8kqg0XOElffp0xVwHC-21">
          <mxGeometry x="-0.82" relative="1" as="geometry">
            <mxPoint y="-10" as="offset" />
          </mxGeometry>
        </mxCell>
        <mxCell id="sW8kqg0XOElffp0xVwHC-23" value="1" style="edgeLabel;html=1;align=center;verticalAlign=middle;resizable=0;points=[];" vertex="1" connectable="0" parent="sW8kqg0XOElffp0xVwHC-21">
          <mxGeometry x="0.72" y="-1" relative="1" as="geometry">
            <mxPoint y="-11" as="offset" />
          </mxGeometry>
        </mxCell>
        <object label="&lt;font color=&quot;#ffffff&quot;&gt;&amp;lt;%type%&amp;gt;&lt;br&gt;上架商品申请&lt;br&gt;%createAt%&lt;br&gt;%expireAt%&lt;br&gt;&lt;/font&gt;" placeholders="1" type="Fulfilment" name="Fulfilment Request" createAt="create_at" expireAt="expire_at" id="sW8kqg0XOElffp0xVwHC-24">
          <mxCell style="rounded=1;whiteSpace=wrap;html=1;fillColor=#FF66B3;noLabel=0;comic=0;recursiveResize=1;" vertex="1" parent="1">
            <mxGeometry x="2100" y="230" width="170" height="100" as="geometry" />
          </mxCell>
        </object>
        <object label="&lt;font color=&quot;#ffffff&quot;&gt;&amp;lt;%type%&amp;gt;&lt;br&gt;上架商品结果&lt;br&gt;%createAt%&lt;br&gt;&lt;/font&gt;" placeholders="1" type="Fulfilment" name="Fulfilment Confirmation" createAt="create_at" id="sW8kqg0XOElffp0xVwHC-25">
          <mxCell style="rounded=1;whiteSpace=wrap;html=1;fillColor=#FF66B3;noLabel=0;comic=0;recursiveResize=1;" vertex="1" parent="1">
            <mxGeometry x="2100" y="370" width="170" height="100" as="geometry" />
          </mxCell>
        </object>
        <mxCell id="sW8kqg0XOElffp0xVwHC-26" style="rounded=0;orthogonalLoop=1;jettySize=auto;html=1;endArrow=none;endFill=0;exitX=0.5;exitY=1;exitDx=0;exitDy=0;entryX=0.5;entryY=0;entryDx=0;entryDy=0;" edge="1" parent="1" source="sW8kqg0XOElffp0xVwHC-24" target="sW8kqg0XOElffp0xVwHC-25">
          <mxGeometry relative="1" as="geometry">
            <mxPoint x="2280" y="110" as="sourcePoint" />
            <mxPoint x="2185" y="360" as="targetPoint" />
          </mxGeometry>
        </mxCell>
        <mxCell id="sW8kqg0XOElffp0xVwHC-27" value="1" style="edgeLabel;html=1;align=center;verticalAlign=middle;resizable=0;points=[];" vertex="1" connectable="0" parent="sW8kqg0XOElffp0xVwHC-26">
          <mxGeometry x="-0.82" relative="1" as="geometry">
            <mxPoint y="-10" as="offset" />
          </mxGeometry>
        </mxCell>
        <mxCell id="sW8kqg0XOElffp0xVwHC-28" value="1" style="edgeLabel;html=1;align=center;verticalAlign=middle;resizable=0;points=[];" vertex="1" connectable="0" parent="sW8kqg0XOElffp0xVwHC-26">
          <mxGeometry x="0.72" y="-1" relative="1" as="geometry">
            <mxPoint y="-11" as="offset" />
          </mxGeometry>
        </mxCell>
      </root>
    </mxGraphModel>
  </diagram>
</mxfile>
